<svg id="top" xmlns="http://www.w3.org/2000/svg" xmlns:xlink="http://www.w3.org/1999/xlink" width="1920" height="96" viewBox="0 0 1920 96">	<defs>		<filter id="太行信创英才暑期研学班大数据" x="747" y="21" width="426" height="55" filterUnits="userSpaceOnUse">			<feOffset dy="3" input="SourceAlpha"/>			<feGaussianBlur stdDeviation="3" result="blur"/>			<feFlood flood-opacity="0.078"/>			<feComposite operator="in" in2="blur"/>			<feComposite in="SourceGraphic"/>		</filter>	</defs>	<path id="bg" d="M720,96,696,72H648L623.077,47.077,0,24V0H1920V24L1296.923,47.077,1272,72h-48l-24,24Z" fill="#5069e2"/>	<path id="路径_96" data-name="路径 96" d="M0,0H72L62,12H10Z" transform="translate(1200)" fill="#fff" opacity="0.1"/>	<path id="路径_97" data-name="路径 97" d="M0,0H72L62,12H10Z" transform="translate(648)" fill="#fff" opacity="0.1"/>	<path id="减去_1" data-name="减去 1" d="M1.816,12H0L10,0H86L96,12l-1.814,0L85.208,1H10.792L1.816,12Z" transform="translate(912 84)" fill="#fff" opacity="0.12"/>	<g id="组_32" data-name="组 32" opacity="0.4">		<path id="矩形_33" data-name="矩形 33" d="M0,0H3A0,0,0,0,1,3,0V8.5A1.5,1.5,0,0,1,1.5,10h0A1.5,1.5,0,0,1,0,8.5V0A0,0,0,0,1,0,0Z" transform="translate(1464)" fill="#fff"/>		<path id="矩形_34" data-name="矩形 34" d="M0,0H3A0,0,0,0,1,3,0V8.5A1.5,1.5,0,0,1,1.5,10h0A1.5,1.5,0,0,1,0,8.5V0A0,0,0,0,1,0,0Z" transform="translate(1471)" fill="#fff"/>		<path id="矩形_35" data-name="矩形 35" d="M0,0H3A0,0,0,0,1,3,0V8.5A1.5,1.5,0,0,1,1.5,10h0A1.5,1.5,0,0,1,0,8.5V0A0,0,0,0,1,0,0Z" transform="translate(1478)" fill="#fff"/>		<path id="矩形_36" data-name="矩形 36" d="M0,0H3A0,0,0,0,1,3,0V8.5A1.5,1.5,0,0,1,1.5,10h0A1.5,1.5,0,0,1,0,8.5V0A0,0,0,0,1,0,0Z" transform="translate(1485)" fill="#fff"/>	</g>	<g id="组_33" data-name="组 33" transform="translate(-1032)" opacity="0.4">		<path id="矩形_33-2" data-name="矩形 33" d="M0,0H3A0,0,0,0,1,3,0V8.5A1.5,1.5,0,0,1,1.5,10h0A1.5,1.5,0,0,1,0,8.5V0A0,0,0,0,1,0,0Z" transform="translate(1464)" fill="#fff"/>		<path id="矩形_34-2" data-name="矩形 34" d="M0,0H3A0,0,0,0,1,3,0V8.5A1.5,1.5,0,0,1,1.5,10h0A1.5,1.5,0,0,1,0,8.5V0A0,0,0,0,1,0,0Z" transform="translate(1471)" fill="#fff"/>		<path id="矩形_35-2" data-name="矩形 35" d="M0,0H3A0,0,0,0,1,3,0V8.5A1.5,1.5,0,0,1,1.5,10h0A1.5,1.5,0,0,1,0,8.5V0A0,0,0,0,1,0,0Z" transform="translate(1478)" fill="#fff"/>		<path id="矩形_36-2" data-name="矩形 36" d="M0,0H3A0,0,0,0,1,3,0V8.5A1.5,1.5,0,0,1,1.5,10h0A1.5,1.5,0,0,1,0,8.5V0A0,0,0,0,1,0,0Z" transform="translate(1485)" fill="#fff"/>	</g>	<g id="椭圆_1" data-name="椭圆 1" transform="translate(272 12)" fill="none" stroke="#fff" stroke-width="1" opacity="0.4">		<circle cx="4" cy="4" r="4" stroke="none"/>		<circle cx="4" cy="4" r="3.5" fill="none"/>	</g>	<g id="椭圆_2" data-name="椭圆 2" transform="translate(256 12)" fill="none" stroke="#fff" stroke-width="1" opacity="0.4">		<circle cx="4" cy="4" r="4" stroke="none"/>		<circle cx="4" cy="4" r="3.5" fill="none"/>	</g>	<g id="椭圆_3" data-name="椭圆 3" transform="translate(240 12)" fill="none" stroke="#fff" stroke-width="1" opacity="0.4">		<circle cx="4" cy="4" r="4" stroke="none"/>		<circle cx="4" cy="4" r="3.5" fill="none"/>	</g>	<g id="椭圆_4" data-name="椭圆 4" transform="translate(1712 10)" fill="none" stroke="#fff" stroke-width="1" opacity="0.4">		<circle cx="4" cy="4" r="4" stroke="none"/>		<circle cx="4" cy="4" r="3.5" fill="none"/>	</g>	<g id="椭圆_5" data-name="椭圆 5" transform="translate(1696 10)" fill="none" stroke="#fff" stroke-width="1" opacity="0.4">		<circle cx="4" cy="4" r="4" stroke="none"/>		<circle cx="4" cy="4" r="3.5" fill="none"/>	</g>	<g id="椭圆_6" data-name="椭圆 6" transform="translate(1680 10)" fill="none" stroke="#fff" stroke-width="1" opacity="0.4">		<circle cx="4" cy="4" r="4" stroke="none"/>		<circle cx="4" cy="4" r="3.5" fill="none"/>	</g>	<g transform="matrix(1, 0, 0, 1, 0, 0)" filter="url(#太行信创英才暑期研学班大数据)">		<text id="太行信创英才暑期研学班大数据-2" data-name="太行信创英才暑期研学班大数据" transform="translate(960 57)" fill="#fff" font-size="28" font-family="YuGothicUI-Bold, Yu Gothic UI" font-weight="700" letter-spacing="0.04em"><tspan x="-203.28" y="0">太行信</tspan><tspan y="0" font-family="MicrosoftJhengHeiUIBold, Microsoft JhengHei UI" font-weight="400">创</tspan><tspan y="0">英才暑期研学班大数据</tspan></text>	</g>	<rect id="矩形_66" data-name="矩形 66" width="4" height="20" rx="2" transform="translate(1195 38)" fill="#fff" opacity="0.8"/>	<rect id="矩形_69" data-name="矩形 69" width="4" height="20" rx="2" transform="translate(721 38)" fill="#fff" opacity="0.8"/>	<rect id="矩形_67" data-name="矩形 67" width="4" height="14" rx="2" transform="translate(1207 41)" fill="#fff" opacity="0.5"/>	<rect id="矩形_70" data-name="矩形 70" width="4" height="14" rx="2" transform="translate(709 41)" fill="#fff" opacity="0.5"/>	<rect id="矩形_68" data-name="矩形 68" width="4" height="8" rx="2" transform="translate(1219 44)" fill="#fff" opacity="0.2"/>	<rect id="矩形_71" data-name="矩形 71" width="4" height="8" rx="2" transform="translate(697 44)" fill="#fff" opacity="0.2"/></svg>