<svg xmlns="http://www.w3.org/2000/svg" width="624" height="232.527" viewBox="0 0 624 232.527">
    <g id="组_54" data-name="组 54" transform="translate(-648 -367.473)">
        <path id="路径_177" data-name="路径 177" d="M-14.748,320.587l312-74,312,74-312,112Z" transform="translate(662.748 167.413)" fill="#45a2ff" opacity="0.163"/>
        <path id="路径_168" data-name="路径 168" d="M3349,360l-288,96,288,96,288-96Z" transform="translate(-2389 8)" fill="rgba(69,162,255,0.08)" stroke="#b1c6ff" stroke-width="1" stroke-dasharray="6 6" opacity="0.476"/>
        <path id="路径_169" data-name="路径 169" d="M3349,360l-288,96,288,96,288-96Z" transform="translate(-2389 16)" fill="rgba(69,162,255,0.08)" stroke="#b1c6ff" stroke-width="1" stroke-dasharray="6 6" opacity="0.476"/>
        <path id="路径_170" data-name="路径 170" d="M3349,360l-288,96,288,96,288-96Z" transform="translate(-2389 24)" fill="rgba(69,162,255,0.08)" stroke="#b1c6ff" stroke-width="1" stroke-dasharray="6 6" opacity="0.476"/>
        <path id="路径_171" data-name="路径 171" d="M3349,600,3037,488l24-5.69L3349,583Z" transform="translate(-2389)" fill="#45a2ff" opacity="0.316"/>
        <path id="路径_172" data-name="路径 172" d="M3037,600l312-112-24-5.637L3037,583Z" transform="translate(-2077)" fill="#45a2ff" opacity="0.316"/>
        <path id="路径_173" data-name="路径 173" d="M3241.388,360,3061,420.129l180.388,60.129,180.388-60.129Z" transform="translate(-2281.388 55.741)" fill="#45a2ff" opacity="0.32"/>
        <path id="路径_174" data-name="路径 174" d="M3241.388,360,3061,420.129l180.388,60.129,180.388-60.129Z" transform="translate(-2281.388 35.741)" fill="#45a2ff"/>
        <ellipse id="椭圆_43" data-name="椭圆 43" cx="64" cy="20.5" rx="64" ry="20.5" transform="translate(896 445)" opacity="0.084"/>
        <g id="Слой_2" data-name="Слой 2" transform="translate(902.986 384.001)">
            <g id="Слой_1" data-name="Слой 1" transform="translate(-0.001 -0.001)">
                <path id="路径_182" data-name="路径 182" d="M97.323,168.481c-22.265-12.214-58.362-12.214-80.627,0s-22.262,32.018,0,44.233,58.362,12.214,80.627,0S119.59,180.706,97.323,168.481ZM80.1,203.262c-12.749,6.994-33.42,6.994-46.171,0s-12.749-18.337,0-25.33,33.422-6.994,46.171,0S92.846,196.267,80.1,203.262Z" transform="translate(0.001 -124.792)" fill="#53d18d"/>
                <path id="路径_183" data-name="路径 183" d="M.073,240.482,0,220.99l16.275,16Z" transform="translate(0 -173.097)" fill="#53d18d"/>
                <path id="路径_184" data-name="路径 184" d="M100.44,316.77c.529,1.008,5.305,12.6,6.1,12.854s30.5,4.285,30.5,4.285l18.034-1.261s7.426-3.023,9.018-3.78,4.244-13.107,4.244-13.107Z" transform="translate(-77.532 -247.328)" fill="#53d18d"/>
                <path id="路径_185" data-name="路径 185" d="M449.11,217.67,449.2,236.3l-8.094,5.4-6.9-16.887Z" transform="translate(-335.178 -170.496)" fill="#e55353"/>
                <path id="路径_186" data-name="路径 186" d="M85.32,130.931l32.095-6.051,42.969,4.033L147.653,111.27l-40.317-2.52Z" transform="translate(-65.86 -85.181)" fill="#53d18d"/>
                <path id="路径_187" data-name="路径 187" d="M97.323,90.561c-22.265-12.214-58.362-12.214-80.627,0s-22.262,32.018,0,44.233,58.362,12.214,80.627,0S119.59,102.769,97.323,90.561ZM80.1,125.342c-12.749,6.994-33.42,6.994-46.171,0s-12.749-18.337,0-25.33,33.422-6.994,46.171,0S92.846,118.349,80.1,125.342Z" transform="translate(0.001 -63.759)" fill="#8dffc1"/>
                <path id="路径_188" data-name="路径 188" d="M204.61,54.47V91.477a56.944,56.944,0,0,1,28.886,2.28c14.918,5.511,20.894-3.546,20.894-3.546s-2.851-21.672-3.581-22.621-15.32-9.83-16.444-10.082-19.033-2.458-19.033-2.458Z" transform="translate(-157.943 -42.665)" fill="#3eafd8"/>
                <path id="路径_189" data-name="路径 189" d="M386.14,204.23l.16-37.107,25.772-23.893.016,35.124S413.541,194.422,386.14,204.23Z" transform="translate(-298.071 -112.189)" fill="#3eafd8"/>
                <path id="路径_190" data-name="路径 190" d="M325.733,247.387l-17.683-9.893-.281-17.574,18.123,9.765Z" transform="translate(-237.575 -172.259)" fill="#45bfeb"/>
                <path id="路径_191" data-name="路径 191" d="M143.335,46.98,125.383,36.811,125.23,20.22l18.1,9.863Z" transform="translate(-96.668 -15.054)" fill="#45bfeb"/>
                <path id="路径_192" data-name="路径 192" d="M193.992,9.158c-18.638-10.225-46-11.922-68.762-3.993l18.11,9.882c11.36-2.078,24.38-1.394,33.426,3.573,12.749,7,12.749,18.337,0,25.33a40.417,40.417,0,0,1-9.9,3.721L184.9,57.463a63.578,63.578,0,0,0,9.1-4.061C216.259,41.177,216.259,21.373,193.992,9.158Z" transform="translate(-96.668 0.001)" fill="#69d7ff"/>
                <g id="Girl_12" transform="translate(8.142 50.234)">
                    <path id="_Контур_" data-name="&lt;Контур&gt;" d="M62.906,232.5a2.047,2.047,0,0,1,2.965.967c.253.622.214,2.213.429,3.214s.714,1.567.894,2.384-.114,2.167-2.171,2.41a4.9,4.9,0,0,1-4.126-1.068,2.607,2.607,0,0,1,0-2.659,3.562,3.562,0,0,0,.876-2.215Z" transform="translate(-54.868 -232.107)" fill="#3a2c6d"/>
                    <path id="_Контур_2" data-name="&lt;Контур&gt;" d="M65.982,231.9a3.076,3.076,0,0,0-2.472.366,2.1,2.1,0,0,0-.655,2.167c.123.459.372,1.084.757,1.125S65.982,231.9,65.982,231.9Z" transform="translate(-56.598 -231.792)" fill="#3a2c6d"/>
                    <path id="_Контур_3" data-name="&lt;Контур&gt;" d="M68.712,250.67s-.1,1.628-.068,1.747.671.234.851.377-.931,1.792-1.494,2.035-2.313-.379-2.436-1.2a1.864,1.864,0,0,1,.737-1.558,3.949,3.949,0,0,1,.484-.013l.05-.789C67.6,251.034,68.712,250.67,68.712,250.67Z" transform="translate(-58.742 -246.579)" fill="#ffcea9"/>
                    <path id="_Контур_4" data-name="&lt;Контур&gt;" d="M40.767,265.378a8.758,8.758,0,0,1-1.706,1.688,8.352,8.352,0,0,0-.582.637,2.61,2.61,0,0,1-1.14.724c-.388.1-.55.069-.616,0s-.034-.176.135-.238a2.186,2.186,0,0,0,.75-.384s-.36.158-.586.232a2.3,2.3,0,0,1-.634.119c-.212,0-.436-.234-.267-.3s.324-.076.657-.191a2.23,2.23,0,0,0,.49-.241,4.5,4.5,0,0,1-.707.137,1.162,1.162,0,0,1-.588-.063c-.1-.041-.185-.217.039-.269a3.572,3.572,0,0,0,.848-.189c.262-.113.424-.23.367-.254s-.205.052-.47.035-.506-.178-.5-.312.055-.059.312-.08a5.9,5.9,0,0,1,.828-.132,2.8,2.8,0,0,0,.814-.091,5.01,5.01,0,0,0,1.384-1.448,9.355,9.355,0,0,0,1.229-2.349c.287-.9.632-2.586.874-3.171a1.246,1.246,0,0,1,1.07-.867c.472-.015.684.574.55,1.084A19.574,19.574,0,0,1,40.767,265.378Z" transform="translate(-35.83 -252.609)" fill="#ffcea9"/>
                    <path id="_Контур_5" data-name="&lt;Контур&gt;" d="M65.05,257.564c.481.069,1.031.314,1.106.563a5.146,5.146,0,0,1-.137,2.716c-.415,1.047-.887,2.934-1.127,3.385a5.875,5.875,0,0,1-3.583-.665s-.1-1.818-.107-2.419c-1.549-1.285-.228-2.867,1.086-4.1a3.142,3.142,0,0,1,.472,0s-1.17,1.316-.356,2.063A7.021,7.021,0,0,0,65.05,257.564Z" transform="translate(-54.845 -251.567)" fill="#f4f4f4"/>
                    <path id="_Контур_6" data-name="&lt;Контур&gt;" d="M65.1,234.967h0a1.988,1.988,0,0,1,2.1-1.771,2.119,2.119,0,0,1,2.053,2.2,2.036,2.036,0,0,1-.96,1.589,2.036,2.036,0,0,1-.173.457,3.349,3.349,0,0,1-1.825.73c-.3,0-.566-.267-.851-.715A3.439,3.439,0,0,1,65.1,234.967Z" transform="translate(-58.325 -232.889)" fill="#ffcea9"/>
                    <path id="路径_193" data-name="路径 193" d="M68.122,233.1c.794.15,1.448.362,1.665,1.1a3.783,3.783,0,0,1,.157,1.9l-.114.3-.965.47s-.456-.355-.308-1.4a.736.736,0,0,0-.137-.394,1.116,1.116,0,0,1-.132-.316,1.2,1.2,0,0,0-.625-.65,2.245,2.245,0,0,0-1.914.087A2.127,2.127,0,0,1,68.122,233.1Z" transform="translate(-58.896 -232.777)" fill="#3a2c6d"/>
                    <path id="路径_194" data-name="路径 194" d="M46.458,348.68c-.4.312-1.029.1-1.061.126a16.477,16.477,0,0,1-1.473,1.071c-.251.186-.643.433-.572.8.128.65,1.213.446,1.624.249s.744-.522,1.14-.752c.276-.163.547-.247.591-.579A2.537,2.537,0,0,0,46.458,348.68Z" transform="translate(-41.599 -323.348)" fill="#38226d"/>
                    <path id="路径_195" data-name="路径 195" d="M46.722,352.27c-.052.316-.322.405-.6.568-.395.232-.741.568-1.14.765s-1.323.362-1.6-.1c.144.62,1.211.433,1.617.23s.744-.522,1.14-.752c.276-.163.547-.247.591-.579A.559.559,0,0,0,46.722,352.27Z" transform="translate(-41.635 -326.16)" fill="#9c73ff"/>
                    <path id="路径_196" data-name="路径 196" d="M38.767,343.86a1.442,1.442,0,0,1-.953.152,14.83,14.83,0,0,1-1.348.975c-.228.173-.588.4-.522.733.116.589,1.111.407,1.485.228s.684-.479,1.038-.689c.253-.15.5-.228.541-.531A1.957,1.957,0,0,0,38.767,343.86Z" transform="translate(-35.881 -319.572)" fill="#38226d"/>
                    <path id="路径_197" data-name="路径 197" d="M39.044,347.3c-.048.29-.294.371-.545.518-.36.217-.684.52-1.054.7s-1.211.332-1.455-.091c.132.57,1.108.392,1.48.217s.684-.479,1.038-.689c.253-.15.5-.228.541-.531A.458.458,0,0,0,39.044,347.3Z" transform="translate(-35.923 -322.267)" fill="#9c73ff"/>
                    <path id="路径_198" data-name="路径 198" d="M48.158,290.5a6.269,6.269,0,0,1-3.207-.433c.016.323.034.611.034.611-1.3.867-3.925,2.354-4.105,3.37a61.958,61.958,0,0,0,.832,7.88c.411.184.684.154.889-.03a21.086,21.086,0,0,0,.584-6.718s4.561-1.92,4.865-2.971a3.1,3.1,0,0,0,.123-1.3A2.573,2.573,0,0,0,48.158,290.5Z" transform="translate(-39.698 -277.44)" fill="#ffcea9"/>
                    <path id="路径_199" data-name="路径 199" d="M56.427,290.14a5.141,5.141,0,0,1-2.757.351c.014.433.066,1.237.066,1.237-1.3.867-3.925,2.354-4.105,3.372.171,3.216.486,7.876.636,7.934a1.145,1.145,0,0,0,1.083-.121,20.765,20.765,0,0,0,.584-6.688c0-.076,3.914-1.907,4.411-2.384a2.394,2.394,0,0,0,.579-1.89A4.434,4.434,0,0,0,56.427,290.14Z" transform="translate(-46.452 -277.495)" fill="#ffcea9"/>
                    <path id="路径_200" data-name="路径 200" d="M48.22,287.836s1.446,2.436-.965,3.684a17.359,17.359,0,0,1-4.105,1.632l-.383.085a8.966,8.966,0,0,1,0,2.531s-1.825.6-4.13-1.335l-.766-2.345-.089-.629a1.26,1.26,0,0,1,.385-1.183c.556-.477,2.317-1.7,3.421-2.4s1.971-1.374,1.971-1.374l.192-.169a5.154,5.154,0,0,0,3.672.65A3.631,3.631,0,0,1,48.22,287.836Z" transform="translate(-37.285 -274.51)" fill="#8c50ff"/>
                    <path id="_Контур_7" data-name="&lt;Контур&gt;" d="M76.437,271.2a6.884,6.884,0,0,1,.7-.524,2.739,2.739,0,0,0,.7-.479,5.06,5.06,0,0,0,.723-1.95,8.107,8.107,0,0,0-.052-2.906A19.549,19.549,0,0,0,77.3,261.99a1.013,1.013,0,0,1,.153-1.326c.344-.336.7-.327,1.115.574a17.557,17.557,0,0,1,1.273,3.938,8.281,8.281,0,0,1-.043,2.963,10.453,10.453,0,0,1-.83,2.488c-.1.232-.123.433-.269.9a2.988,2.988,0,0,1-.744,1.233c-.312.277-.472.332-.559.295s-.1-.152.025-.293a2.552,2.552,0,0,0,.534-.73s-.265.325-.44.5a2.564,2.564,0,0,1-.529.418c-.192.108-.493-.02-.367-.165s.265-.227.52-.5a2.444,2.444,0,0,0,.351-.47,4.9,4.9,0,0,1-.6.466,1.12,1.12,0,0,1-.563.217c-.107,0-.255-.117-.075-.28a3.712,3.712,0,0,0,.7-.587c.192-.234.294-.433.228-.433s-.164.15-.413.258-.534.074-.584-.059S76.211,271.331,76.437,271.2Z" transform="translate(-66.937 -254.247)" fill="#ffcea9"/>
                    <path id="路径_201" data-name="路径 201" d="M81.753,261.814a2.634,2.634,0,0,1-1.854.587l-.379-1.55A.914.914,0,0,1,80,259.725C80.738,259.415,81.436,260.227,81.753,261.814Z" transform="translate(-69.491 -253.62)" fill="#ededed"/>
                    <path id="路径_202" data-name="路径 202" d="M61.7,257.034s-.949-.275-1.959,1.734l.379.217A14.9,14.9,0,0,1,61.7,257.034Z" transform="translate(-54.256 -251.554)" fill="#ededed"/>
                    <g id="_Группа_" data-name="&lt;Группа&gt;" transform="translate(0 10.159)">
                        <g id="_Группа_2" data-name="&lt;Группа&gt;">
                            <path id="_Контур_8" data-name="&lt;Контур&gt;" d="M39.58,290.081l3.385-1.855a.193.193,0,0,1,.194,0l5.93,3.251-3.483,1.916Z" transform="translate(-38.694 -286.134)" fill="#f4f4f4"/>
                            <path id="路径_203" data-name="路径 203" d="M65.272,308.744l.258.141c.021.011.018.033,0,.046l-.249.137a.1.1,0,0,1-.082,0l-.251-.139c-.023-.013-.018-.033,0-.046l.249-.137A.091.091,0,0,1,65.272,308.744Z" transform="translate(-58.264 -302.221)" fill="#3a2c6d"/>
                            <path id="路径_204" data-name="路径 204" d="M63.649,307.807l.26.141a.025.025,0,0,1,0,.046l-.246.137a.091.091,0,0,1-.082,0l-.26-.141a.025.025,0,0,1,0-.046l.246-.137A.1.1,0,0,1,63.649,307.807Z" transform="translate(-57.009 -301.486)" fill="#3a2c6d"/>
                            <path id="路径_205" data-name="路径 205" d="M62.023,306.871l.258.143c.021.011.018.03,0,.043l-.246.137a.091.091,0,0,1-.082,0l-.258-.141c-.023-.011-.021-.033,0-.046l.246-.134A.1.1,0,0,1,62.023,306.871Z" transform="translate(-55.753 -300.753)" fill="#3a2c6d"/>
                            <path id="路径_206" data-name="路径 206" d="M60.431,305.968l.258.143c.021.011.018.032,0,.046l-.249.134a.1.1,0,0,1-.082,0l-.258-.143c-.021-.011-.018-.03,0-.046l.249-.134a.1.1,0,0,1,.082,0Z" transform="translate(-54.523 -300.045)" fill="#3a2c6d"/>
                            <path id="路径_207" data-name="路径 207" d="M58.839,305.024l.26.141a.025.025,0,0,1,0,.046l-.246.137a.1.1,0,0,1-.082,0l-.26-.141a.025.025,0,0,1,0-.046l.246-.137A.091.091,0,0,1,58.839,305.024Z" transform="translate(-53.296 -299.305)" fill="#3a2c6d"/>
                            <path id="路径_208" data-name="路径 208" d="M57.2,304.1l.26.141a.025.025,0,0,1,0,.046l-.246.137a.091.091,0,0,1-.082,0l-.267-.134a.025.025,0,0,1,0-.046l.246-.137A.1.1,0,0,1,57.2,304.1Z" transform="translate(-52.022 -298.584)" fill="#3a2c6d"/>
                            <path id="路径_209" data-name="路径 209" d="M55.611,303.166l.258.143c.023.011.018.03,0,.046l-.249.134a.1.1,0,0,1-.082,0l-.258-.143c-.021-.011-.018-.033,0-.046l.249-.134A.093.093,0,0,1,55.611,303.166Z" transform="translate(-50.803 -297.849)" fill="#3a2c6d"/>
                            <path id="路径_210" data-name="路径 210" d="M54.009,302.238l.26.143c.021.011.018.033,0,.046l-.246.134a.1.1,0,0,1-.082,0l-.26-.143c-.021-.011-.018-.03,0-.046l.246-.134A.1.1,0,0,1,54.009,302.238Z" transform="translate(-49.568 -297.124)" fill="#3a2c6d"/>
                            <path id="路径_211" data-name="路径 211" d="M52.4,301.316l.258.141a.025.025,0,0,1,0,.046l-.246.137a.1.1,0,0,1-.082,0l-.258-.141c-.023-.013-.021-.033,0-.046l.246-.137A.1.1,0,0,1,52.4,301.316Z" transform="translate(-48.327 -296.401)" fill="#3a2c6d"/>
                            <path id="路径_212" data-name="路径 212" d="M50.831,300.387l.258.141c.023.013.018.033,0,.046l-.246.137a.1.1,0,0,1-.084,0l-.258-.141a.025.025,0,0,1,0-.046l.249-.137A.1.1,0,0,1,50.831,300.387Z" transform="translate(-47.113 -295.674)" fill="#3a2c6d"/>
                            <path id="路径_213" data-name="路径 213" d="M49.189,299.456l.26.143c.021.011.018.03,0,.046l-.246.134a.1.1,0,0,1-.082,0l-.26-.143c-.021,0-.018-.033,0-.046l.246-.134A.093.093,0,0,1,49.189,299.456Z" transform="translate(-45.847 -294.943)" fill="#3a2c6d"/>
                            <path id="路径_214" data-name="路径 214" d="M47.578,298.528l.258.143c.021,0,.018.032,0,.046l-.249.134a.1.1,0,0,1-.082,0l-.258-.143c-.023-.011-.018-.03,0-.046l.246-.134a.105.105,0,0,1,.084,0Z" transform="translate(-44.601 -294.217)" fill="#3a2c6d"/>
                            <path id="路径_215" data-name="路径 215" d="M45.971,297.6l.258.141c.023.013.021.033,0,.046l-.246.137a.1.1,0,0,1-.084,0l-.258-.141a.025.025,0,0,1,0-.046l.246-.137a.091.091,0,0,1,.084,0Z" transform="translate(-43.361 -293.491)" fill="#3a2c6d"/>
                            <path id="路径_216" data-name="路径 216" d="M43.6,296.232l.436.238a.025.025,0,0,1,0,.046l-.246.137a.091.091,0,0,1-.082,0l-.436-.238c-.021-.011-.018-.032,0-.046l.246-.134A.1.1,0,0,1,43.6,296.232Z" transform="translate(-41.532 -292.42)" fill="#3a2c6d"/>
                            <path id="路径_217" data-name="路径 217" d="M64.429,306.456l.26.143c.021.011.018.03,0,.046l-.246.134a.1.1,0,0,1-.082,0l-.26-.143c-.021,0-.018-.032,0-.046l.246-.134A.093.093,0,0,1,64.429,306.456Z" transform="translate(-57.611 -300.426)" fill="#3a2c6d"/>
                            <path id="路径_218" data-name="路径 218" d="M62.839,305.528l.26.143c.021,0,.018.03,0,.046l-.246.134a.1.1,0,0,1-.082,0l-.26-.143c-.021-.011-.018-.033,0-.046l.246-.134a.1.1,0,0,1,.082,0Z" transform="translate(-56.384 -299.701)" fill="#3a2c6d"/>
                            <path id="路径_219" data-name="路径 219" d="M61.209,304.6l.26.143c.021,0,.018.032,0,.046l-.246.134a.1.1,0,0,1-.082,0l-.26-.143c-.021-.011-.018-.03,0-.046l.246-.134A.1.1,0,0,1,61.209,304.6Z" transform="translate(-55.126 -298.972)" fill="#3a2c6d"/>
                            <path id="路径_220" data-name="路径 220" d="M59.6,303.668l.26.143c.021.011.018.033,0,.046l-.246.134a.093.093,0,0,1-.082,0l-.26-.143c-.021-.011-.018-.03,0-.046l.246-.134a.1.1,0,0,1,.082,0Z" transform="translate(-53.883 -298.244)" fill="#3a2c6d"/>
                            <path id="路径_221" data-name="路径 221" d="M58,302.748l.258.143c.021.011.018.03,0,.046l-.249.134a.1.1,0,0,1-.082,0l-.258-.143c-.023-.011-.018-.033,0-.046l.249-.134A.1.1,0,0,1,58,302.748Z" transform="translate(-52.645 -297.523)" fill="#3a2c6d"/>
                            <path id="路径_222" data-name="路径 222" d="M56.391,301.818l.258.143c.023.011.018.033,0,.046l-.249.134a.1.1,0,0,1-.082,0L56.061,302c-.021-.011-.018-.03,0-.046l.249-.134A.1.1,0,0,1,56.391,301.818Z" transform="translate(-51.405 -296.795)" fill="#3a2c6d"/>
                            <path id="路径_223" data-name="路径 223" d="M54.831,300.888l.258.143c.023.011.018.033,0,.046l-.249.134a.091.091,0,0,1-.082,0l-.258-.143c-.021,0-.018-.03,0-.046l.249-.134A.1.1,0,0,1,54.831,300.888Z" transform="translate(-50.201 -296.066)" fill="#3a2c6d"/>
                            <path id="路径_224" data-name="路径 224" d="M53.171,299.969l.258.141c.023.011.021.032,0,.045l-.246.134a.1.1,0,0,1-.084,0l-.258-.143c-.021,0-.018-.03,0-.043l.253-.134A.091.091,0,0,1,53.171,299.969Z" transform="translate(-48.919 -295.346)" fill="#3a2c6d"/>
                            <path id="路径_225" data-name="路径 225" d="M51.569,299.034l.26.141a.025.025,0,0,1,0,.046l-.246.137a.1.1,0,0,1-.082,0l-.26-.141a.025.025,0,0,1,0-.046l.246-.137A.091.091,0,0,1,51.569,299.034Z" transform="translate(-47.684 -294.613)" fill="#3a2c6d"/>
                            <path id="路径_226" data-name="路径 226" d="M49.936,298.105l.26.141a.025.025,0,0,1,0,.045l-.246.137a.1.1,0,0,1-.082,0l-.267-.137a.025.025,0,0,1,0-.045l.246-.137A.091.091,0,0,1,49.936,298.105Z" transform="translate(-46.418 -293.886)" fill="#3a2c6d"/>
                            <path id="路径_227" data-name="路径 227" d="M48.3,297.162l.26.141a.025.025,0,0,1,0,.046l-.246.137a.091.091,0,0,1-.082,0l-.276-.139a.025.025,0,0,1,0-.046l.246-.137a.09.09,0,0,1,.1,0Z" transform="translate(-45.145 -293.144)" fill="#3a2c6d"/>
                            <path id="路径_228" data-name="路径 228" d="M46.739,296.247l.26.141a.025.025,0,0,1,0,.046l-.246.137a.091.091,0,0,1-.082,0l-.26-.141a.025.025,0,0,1,0-.046l.246-.137A.1.1,0,0,1,46.739,296.247Z" transform="translate(-43.956 -292.431)" fill="#3a2c6d"/>
                            <path id="路径_229" data-name="路径 229" d="M66.039,307.389l.436.238a.025.025,0,0,1,0,.046l-.246.137a.1.1,0,0,1-.082,0l-.436-.238c-.021,0-.018-.033,0-.046l.246-.134A.093.093,0,0,1,66.039,307.389Z" transform="translate(-58.854 -301.159)" fill="#3a2c6d"/>
                            <path id="路径_230" data-name="路径 230" d="M44.781,294.808l.258.143a.1.1,0,0,0,.078,0l.26-.143c.023-.013.023-.03,0-.043l-.021-.011a.021.021,0,0,1,0-.039l.276-.152a.021.021,0,0,0,0-.041l-.166-.091a.091.091,0,0,0-.075,0l-.258.141-.055.03-.039.022-.039.022-.228.121A.024.024,0,0,0,44.781,294.808Z" transform="translate(-42.695 -291.008)" fill="#3a2c6d"/>
                            <path id="路径_231" data-name="路径 231" d="M71.456,305.126l.258.141c.023.013.018.033,0,.046l-.249.137a.1.1,0,0,1-.082,0l-.262-.143a.025.025,0,0,1,0-.046l.249-.137A.091.091,0,0,1,71.456,305.126Z" transform="translate(-63.03 -299.383)" fill="#3a2c6d"/>
                            <path id="路径_232" data-name="路径 232" d="M69.828,304.208l.258.143c.021.011.018.03,0,.046l-.249.134a.1.1,0,0,1-.082,0l-.258-.143c-.023,0-.018-.033,0-.046l.249-.134a.1.1,0,0,1,.082,0Z" transform="translate(-61.777 -298.667)" fill="#3a2c6d"/>
                            <path id="路径_233" data-name="路径 233" d="M68.277,303.29l.26.141a.025.025,0,0,1,0,.045l-.246.137a.1.1,0,0,1-.082,0l-.258-.139a.025.025,0,0,1,0-.046l.246-.137A.091.091,0,0,1,68.277,303.29Z" transform="translate(-60.583 -297.948)" fill="#3a2c6d"/>
                            <path id="路径_234" data-name="路径 234" d="M54.629,295.406l.26.143c.021,0,.018.03,0,.043l-.246.137a.1.1,0,0,1-.082,0l-.26-.143c-.021-.011-.018-.032,0-.046l.246-.134a.093.093,0,0,1,.082,0Z" transform="translate(-50.046 -291.771)" fill="#3a2c6d"/>
                            <path id="路径_235" data-name="路径 235" d="M53.029,294.484l.26.141c.021.011.018.033,0,.046l-.246.137a.1.1,0,0,1-.082,0l-.26-.141a.025.025,0,0,1,0-.046l.246-.137A.091.091,0,0,1,53.029,294.484Z" transform="translate(-48.811 -291.049)" fill="#3a2c6d"/>
                            <path id="路径_236" data-name="路径 236" d="M51.421,293.553l.258.143c.023.011.021.03,0,.046l-.246.134a.1.1,0,0,1-.084,0l-.258-.143c-.021-.011-.018-.033,0-.046l.246-.134a.093.093,0,0,1,.084,0Z" transform="translate(-47.568 -290.32)" fill="#3a2c6d"/>
                            <path id="路径_237" data-name="路径 237" d="M49.831,292.634l.258.141c.023.013.018.033,0,.045l-.249.137a.1.1,0,0,1-.082,0l-.258-.141a.025.025,0,0,1,0-.046l.249-.137A.091.091,0,0,1,49.831,292.634Z" transform="translate(-46.341 -289.6)" fill="#3a2c6d"/>
                            <path id="路径_238" data-name="路径 238" d="M66.275,302.129l.354.2c.021.011.018.03,0,.046l-.246.134a.1.1,0,0,1-.082,0l-.349-.191c-.021-.011-.018-.03,0-.046l.246-.134A.1.1,0,0,1,66.275,302.129Z" transform="translate(-59.039 -297.04)" fill="#3a2c6d"/>
                            <path id="路径_239" data-name="路径 239" d="M56.226,296.33l.351.193c.023.011.018.033,0,.046l-.249.134a.1.1,0,0,1-.082,0l-.351-.2c-.023,0-.021-.03,0-.043l.246-.137A.1.1,0,0,1,56.226,296.33Z" transform="translate(-51.276 -292.495)" fill="#3a2c6d"/>
                            <path id="路径_240" data-name="路径 240" d="M58.28,297.5l1.731.943c.023.013.018.033,0,.046l-.249.137a.091.091,0,0,1-.082,0l-1.72-.943c-.021-.013-.018-.032,0-.046l.246-.137A.1.1,0,0,1,58.28,297.5Z" transform="translate(-52.872 -293.417)" fill="#3a2c6d"/>
                            <path id="路径_241" data-name="路径 241" d="M65.549,305.309l.26.143c.021.011.018.03,0,.043l-.246.136a.091.091,0,0,1-.082,0l-.26-.141c-.021-.011-.018-.032,0-.046l.246-.134A.093.093,0,0,1,65.549,305.309Z" transform="translate(-58.476 -299.529)" fill="#3a2c6d"/>
                            <path id="路径_242" data-name="路径 242" d="M63.938,304.378l.258.143c.021.011.018.033,0,.046l-.249.134a.1.1,0,0,1-.082,0l-.258-.143c-.023-.011-.018-.03,0-.046l.249-.134a.1.1,0,0,1,.082,0Z" transform="translate(-57.23 -298.8)" fill="#3a2c6d"/>
                            <path id="路径_243" data-name="路径 243" d="M62.293,303.444l.26.141a.025.025,0,0,1,0,.046l-.246.137a.1.1,0,0,1-.082,0l-.274-.139a.025.025,0,0,1,0-.046l.246-.137a.09.09,0,0,1,.1,0Z" transform="translate(-55.952 -298.065)" fill="#3a2c6d"/>
                            <path id="路径_244" data-name="路径 244" d="M60.728,302.528l.258.143c.021,0,.018.03,0,.043l-.249.137a.091.091,0,0,1-.082,0l-.258-.141c-.023-.011-.018-.033,0-.046l.249-.134a.09.09,0,0,1,.082,0Z" transform="translate(-54.752 -297.351)" fill="#3a2c6d"/>
                            <path id="路径_245" data-name="路径 245" d="M59.129,301.6l.26.143c.021,0,.018.032,0,.045l-.246.134a.093.093,0,0,1-.082,0l-.26-.143c-.021-.011-.018-.03,0-.046l.246-.134A.1.1,0,0,1,59.129,301.6Z" transform="translate(-53.52 -296.622)" fill="#3a2c6d"/>
                            <path id="路径_246" data-name="路径 246" d="M57.521,300.674l.258.141c.023.013.018.033,0,.046l-.249.137a.091.091,0,0,1-.082,0l-.258-.141a.025.025,0,0,1,0-.046l.249-.137A.091.091,0,0,1,57.521,300.674Z" transform="translate(-52.277 -295.898)" fill="#3a2c6d"/>
                            <path id="路径_247" data-name="路径 247" d="M55.919,299.746l.26.143c.021.011.018.03,0,.046l-.246.134a.1.1,0,0,1-.082,0l-.26-.143c-.021-.011-.018-.033,0-.046l.246-.134A.093.093,0,0,1,55.919,299.746Z" transform="translate(-51.042 -295.171)" fill="#3a2c6d"/>
                            <path id="路径_248" data-name="路径 248" d="M54.288,298.822l.258.141c.023.011.018.033,0,.046l-.249.134a.091.091,0,0,1-.082,0L53.951,299c-.021-.011-.018-.03,0-.043l.249-.137A.091.091,0,0,1,54.288,298.822Z" transform="translate(-49.776 -294.446)" fill="#3a2c6d"/>
                            <path id="路径_249" data-name="路径 249" d="M52.709,297.9l.26.141a.025.025,0,0,1,0,.046l-.246.137a.091.091,0,0,1-.082,0l-.26-.141a.025.025,0,0,1,0-.046l.246-.137A.1.1,0,0,1,52.709,297.9Z" transform="translate(-48.564 -293.723)" fill="#3a2c6d"/>
                            <path id="路径_250" data-name="路径 250" d="M51.1,296.966l.258.143c.023,0,.021.03,0,.046l-.246.134a.105.105,0,0,1-.084,0l-.258-.143c-.021-.011-.018-.033,0-.046l.246-.134A.1.1,0,0,1,51.1,296.966Z" transform="translate(-47.321 -292.994)" fill="#3a2c6d"/>
                            <path id="路径_251" data-name="路径 251" d="M49.5,296.04l.26.141c.021,0,.018.033,0,.046l-.246.134a.093.093,0,0,1-.082,0l-.26-.143c-.021-.011-.018-.03,0-.043l.246-.137a.091.091,0,0,1,.082,0Z" transform="translate(-46.086 -292.267)" fill="#3a2c6d"/>
                            <path id="路径_252" data-name="路径 252" d="M47.876,295.115l.258.141c.023.013.021.033,0,.046l-.246.137a.1.1,0,0,1-.084,0l-.262-.139a.025.025,0,0,1,0-.046l.246-.137A.1.1,0,0,1,47.876,295.115Z" transform="translate(-44.828 -291.544)" fill="#3a2c6d"/>
                            <path id="路径_253" data-name="路径 253" d="M67.146,306.234l.534.293c.023.013.018.033,0,.046l-.249.137a.1.1,0,0,1-.082,0l-.534-.293c-.023-.013-.021-.033,0-.046l.246-.137A.1.1,0,0,1,67.146,306.234Z" transform="translate(-59.705 -300.253)" fill="#3a2c6d"/>
                            <path id="路径_254" data-name="路径 254" d="M67.9,304.866l.26.143c.021.011.018.03,0,.043l-.246.137a.1.1,0,0,1-.082,0l-.26-.143c-.021-.011-.018-.032,0-.045l.246-.134A.093.093,0,0,1,67.9,304.866Z" transform="translate(-60.29 -299.181)" fill="#3a2c6d"/>
                            <path id="路径_255" data-name="路径 255" d="M66.284,303.968l.258.143c.023.011.021.033,0,.046l-.246.134a.1.1,0,0,1-.084,0l-.26-.145c-.021-.011-.018-.03,0-.043l.251-.134a.1.1,0,0,1,.082,0Z" transform="translate(-59.039 -298.479)" fill="#3a2c6d"/>
                            <path id="路径_256" data-name="路径 256" d="M64.693,303.02l.258.141a.025.025,0,0,1,0,.046l-.246.137a.091.091,0,0,1-.082,0l-.258-.141c-.023-.013-.021-.033,0-.046l.246-.137A.105.105,0,0,1,64.693,303.02Z" transform="translate(-57.814 -297.736)" fill="#3a2c6d"/>
                            <path id="路径_257" data-name="路径 257" d="M63.066,302.1l.26.143c.021.011.018.03,0,.046l-.246.134a.1.1,0,0,1-.082,0l-.267-.132c-.021-.011-.018-.032,0-.046l.246-.134A.1.1,0,0,1,63.066,302.1Z" transform="translate(-56.554 -297.017)" fill="#3a2c6d"/>
                            <path id="路径_258" data-name="路径 258" d="M61.463,301.147l.258.141c.021,0,.018.033,0,.046l-.249.137a.1.1,0,0,1-.082,0l-.262-.15c-.023-.011-.018-.03,0-.043l.249-.137A.091.091,0,0,1,61.463,301.147Z" transform="translate(-55.316 -296.265)" fill="#3a2c6d"/>
                            <path id="路径_259" data-name="路径 259" d="M59.839,300.237l.26.141a.025.025,0,0,1,0,.046l-.246.137a.091.091,0,0,1-.082,0l-.26-.141c-.021-.011-.018-.033,0-.046l.246-.137A.1.1,0,0,1,59.839,300.237Z" transform="translate(-54.068 -295.556)" fill="#3a2c6d"/>
                            <path id="路径_260" data-name="路径 260" d="M58.279,299.317l.258.143c.023.011.018.033,0,.046l-.249.134a.1.1,0,0,1-.082,0l-.255-.139c-.021-.011-.018-.03,0-.046l.249-.134A.1.1,0,0,1,58.279,299.317Z" transform="translate(-52.864 -294.838)" fill="#3a2c6d"/>
                            <path id="路径_261" data-name="路径 261" d="M56.669,298.384l.26.141a.025.025,0,0,1,0,.046l-.246.137a.1.1,0,0,1-.082,0l-.26-.141a.025.025,0,0,1,0-.046l.246-.137A.091.091,0,0,1,56.669,298.384Z" transform="translate(-51.621 -294.104)" fill="#3a2c6d"/>
                            <path id="路径_262" data-name="路径 262" d="M55.061,297.457l.258.143c.023.011.021.03,0,.043l-.246.137a.1.1,0,0,1-.084,0l-.258-.141c-.021,0-.018-.032,0-.045l.246-.134A.093.093,0,0,1,55.061,297.457Z" transform="translate(-50.378 -293.379)" fill="#3a2c6d"/>
                            <path id="路径_263" data-name="路径 263" d="M53.463,296.53l.258.143c.021,0,.018.033,0,.046l-.246.134a.093.093,0,0,1-.082,0l-.258-.143c-.023-.011-.021-.03,0-.045l.246-.134a.105.105,0,0,1,.082,0Z" transform="translate(-49.145 -292.653)" fill="#3a2c6d"/>
                            <path id="路径_264" data-name="路径 264" d="M51.839,295.6l.26.141a.025.025,0,0,1,0,.046l-.246.137a.091.091,0,0,1-.082,0l-.26-.141a.025.025,0,0,1,0-.046l.246-.137A.091.091,0,0,1,51.839,295.6Z" transform="translate(-47.893 -291.927)" fill="#3a2c6d"/>
                            <path id="路径_265" data-name="路径 265" d="M48.277,293.54l.712.39c.021.011.018.03,0,.046l-.249.134a.1.1,0,0,1-.082,0l-.707-.388c-.021-.011-.018-.03,0-.043l.246-.137A.091.091,0,0,1,48.277,293.54Z" transform="translate(-45.145 -290.311)" fill="#3a2c6d"/>
                            <path id="路径_266" data-name="路径 266" d="M69.509,305.792l.354.193c.021,0,.018.032,0,.046l-.246.134a.093.093,0,0,1-.082,0l-.354-.193a.025.025,0,0,1,0-.046l.249-.137a.091.091,0,0,1,.08,0Z" transform="translate(-61.533 -299.906)" fill="#3a2c6d"/>
                            <path id="路径_267" data-name="路径 267" d="M42.383,297.16l5.2,2.852c.023,0,.018.033,0,.046l-.123.067a.1.1,0,0,1-.084,0l-5.2-2.848c-.021-.011-.018-.033,0-.046l.123-.067A.1.1,0,0,1,42.383,297.16Z" transform="translate(-40.683 -293.146)" fill="#3a2c6d"/>
                            <path id="_Контур_9" data-name="&lt;Контур&gt;" d="M61.462,294.841l-.034.017-.894.49-1.59-.871-.034-.017.928-.509Z" transform="translate(-53.616 -290.638)" fill="#bfbfbf"/>
                            <path id="_Контур_10" data-name="&lt;Контур&gt;" d="M61.544,294.991l-.894.49-1.59-.871.894-.49Z" transform="translate(-53.731 -290.772)" fill="#e5e5e5"/>
                            <path id="_Контур_11" data-name="&lt;Контур&gt;" d="M49.116,298.288v.076a.307.307,0,0,1-.162.269L45.8,300.366a.344.344,0,0,1-.326,0l-5.7-3.132a.309.309,0,0,1-.162-.269v-.076l6.019,3.307Z" transform="translate(-38.717 -292.941)" fill="#e5e5e5"/>
                            <path id="_Контур_12" data-name="&lt;Контур&gt;" d="M45.606,300.221v.217a.359.359,0,0,1-.162-.041l-5.7-3.132A.309.309,0,0,1,39.58,297v-.076Z" transform="translate(-38.694 -292.965)" fill="#e5e5e5"/>
                            <path id="_Контур_13" data-name="&lt;Контур&gt;" d="M42.523,286.185a.408.408,0,0,1-.333-.026l-5.684-3.116a.376.376,0,0,1-.187-.258l-.623-3.524a.544.544,0,0,1,0-.061.355.355,0,0,1,.114-.26l5.9,3.24a.269.269,0,0,1,.139.189Z" transform="translate(-35.696 -278.881)" fill="#f4f4f4"/>
                            <path id="_Контур_14" data-name="&lt;Контур&gt;" d="M42.981,285.928l-.039.02a.388.388,0,0,1-.052.026l-.673-3.816a.27.27,0,0,0-.139-.189l-5.9-3.24a.432.432,0,0,1,.08-.059l5.916,3.251a.276.276,0,0,1,.139.191Z" transform="translate(-36.07 -278.67)" fill="#e5e5e5"/>
                        </g>
                    </g>
                </g>
                <g id="Men_11" transform="translate(94.366 33.27)">
                    <path id="_Контур_15" data-name="&lt;Контур&gt;" d="M438.355,181.571a10.031,10.031,0,0,0,1.5,1.95c.164.178,1.412-.275,1.14-.4a7.642,7.642,0,0,1-1.487-1.933,23.218,23.218,0,0,1-.876-2.64c-.258-.884-.477-2.18-.666-2.794a1.225,1.225,0,0,0-.956-.925c-.456-.1-.741.019-.659.535A22.087,22.087,0,0,0,438.355,181.571Z" transform="translate(-431.187 -170.183)" fill="#ffcea9"/>
                    <path id="路径_268" data-name="路径 268" d="M441.14,269.78c.385.3.958.024.988.052a16.854,16.854,0,0,0,1.428,1.131c.242.18.618.423.55.769-.121.62-1.165.433-1.56.238s-.716-.5-1.09-.724c-.265-.156-.527-.238-.568-.557A2.293,2.293,0,0,1,441.14,269.78Z" transform="translate(-434.697 -244.582)" fill="#38226d"/>
                    <path id="路径_269" data-name="路径 269" d="M440.978,273.38c.05.308.31.39.572.546.381.217.714.548,1.108.737s1.273.349,1.528-.093c-.139.6-1.165.41-1.555.217s-.716-.5-1.09-.724c-.265-.156-.527-.238-.568-.557A.525.525,0,0,1,440.978,273.38Z" transform="translate(-434.763 -247.402)" fill="#9c73ff"/>
                    <path id="路径_270" data-name="路径 270" d="M458.243,259.845c.388.3,1.065-.026,1.095,0a14.323,14.323,0,0,0,1.277,1.1c.242.18.618.423.55.769-.123.62-1.168.433-1.562.238s-.716-.5-1.088-.724c-.267-.156-.529-.238-.57-.557A1.733,1.733,0,0,1,458.243,259.845Z" transform="translate(-447.863 -236.799)" fill="#38226d"/>
                    <path id="路径_271" data-name="路径 271" d="M457.978,263.25c.052.308.31.39.575.546.379.217.712.548,1.106.737s1.273.349,1.528-.093c-.137.6-1.165.41-1.555.217s-.716-.5-1.088-.724c-.267-.156-.529-.238-.57-.557A.524.524,0,0,1,457.978,263.25Z" transform="translate(-447.886 -239.468)" fill="#9c73ff"/>
                    <path id="_Контур_16" data-name="&lt;Контур&gt;" d="M419.021,212.075c-.429,2.546.764,3.5,2.313,4.042,1.111.388,2.7.988,2.7.988s-.023.559-.034,1.814c-.011,1.105.141,5.141.141,5.141a1.353,1.353,0,0,0,1.186-.013s.625-3.09.757-4.484a31.3,31.3,0,0,0,.383-3.537c-.089-.358-2.265-1.374-2.954-1.918l4.561,1.45a7.341,7.341,0,0,0-.132,1.424c.041,1.5.128,4.748.128,4.748a1.01,1.01,0,0,0,1.159,0,72.222,72.222,0,0,0,1.008-7.282c-.132-.806-4.149-2.458-4.856-3.034a1.184,1.184,0,0,0-.892-.23Z" transform="translate(-417.751 -198.676)" fill="#8c50ff"/>
                    <g id="_Группа_3" data-name="&lt;Группа&gt;" transform="translate(3.59 10.892)">
                        <g id="_Группа_4" data-name="&lt;Группа&gt;">
                            <path id="_Контур_17" data-name="&lt;Контур&gt;" d="M438.1,214.083l-3.063-1.68a.193.193,0,0,0-.176,0l-5.371,2.947,3.15,1.734Z" transform="translate(-429.49 -210.516)" fill="#f4f4f4"/>
                            <path id="路径_272" data-name="路径 272" d="M441.855,231.175l-.228.128a.023.023,0,0,0,0,.041l.228.124a.091.091,0,0,0,.075,0l.228-.128c.018-.011.016-.028,0-.041l-.228-.121a.093.093,0,0,0-.075,0Z" transform="translate(-438.849 -225.23)" fill="#3a2c6d"/>
                            <path id="路径_273" data-name="路径 273" d="M443.3,230.342l-.228.128c-.018,0-.016.028,0,.041l.228.121a.079.079,0,0,0,.073,0l.228-.128c.018,0,.016-.028,0-.041l-.228-.121A.091.091,0,0,0,443.3,230.342Z" transform="translate(-439.968 -224.578)" fill="#3a2c6d"/>
                            <path id="路径_274" data-name="路径 274" d="M444.775,229.485l-.228.128c-.018,0-.016.028,0,.041l.228.121a.083.083,0,0,0,.075,0l.228-.128c.021,0,.018-.03,0-.041l-.228-.121A.079.079,0,0,0,444.775,229.485Z" transform="translate(-441.103 -223.905)" fill="#3a2c6d"/>
                            <path id="路径_275" data-name="路径 275" d="M446.179,228.667l-.228.13c-.021,0-.018.028,0,.039l.228.124a.086.086,0,0,0,.073,0l.228-.128c.018-.011.016-.028,0-.041l-.228-.121A.093.093,0,0,0,446.179,228.667Z" transform="translate(-442.185 -223.266)" fill="#3a2c6d"/>
                            <path id="路径_276" data-name="路径 276" d="M447.649,227.831l-.228.128c-.021.011-.018.028,0,.041l.228.121a.079.079,0,0,0,.073,0l.228-.128c.021,0,.018-.028,0-.039l-.228-.124A.086.086,0,0,0,447.649,227.831Z" transform="translate(-443.32 -222.61)" fill="#3a2c6d"/>
                            <path id="路径_277" data-name="路径 277" d="M449.1,226.965l-.228.128c-.018,0-.016.03,0,.041l.228.121a.084.084,0,0,0,.075,0l.228-.128c.021,0,.018-.03,0-.041l-.228-.121A.079.079,0,0,0,449.1,226.965Z" transform="translate(-444.445 -221.931)" fill="#3a2c6d"/>
                            <path id="路径_278" data-name="路径 278" d="M450.555,226.155l-.228.128c-.018,0-.016.028,0,.039l.228.124a.091.091,0,0,0,.075,0l.228-.128c.018,0,.016-.028,0-.041l-.228-.121A.079.079,0,0,0,450.555,226.155Z" transform="translate(-445.564 -221.296)" fill="#3a2c6d"/>
                            <path id="路径_279" data-name="路径 279" d="M451.995,225.316l-.228.128c-.018.011-.016.028,0,.041l.228.121a.093.093,0,0,0,.075,0l.228-.13c.018,0,.016-.028,0-.039l-.228-.124A.091.091,0,0,0,451.995,225.316Z" transform="translate(-446.676 -220.64)" fill="#3a2c6d"/>
                            <path id="路径_280" data-name="路径 280" d="M453.445,224.481l-.228.128a.023.023,0,0,0,0,.041l.228.124a.091.091,0,0,0,.075,0l.228-.128c.018-.011.016-.028,0-.041l-.228-.121A.083.083,0,0,0,453.445,224.481Z" transform="translate(-447.795 -219.987)" fill="#3a2c6d"/>
                            <path id="路径_281" data-name="路径 281" d="M454.895,223.65l-.228.128c-.018,0-.016.028,0,.041l.228.121a.086.086,0,0,0,.073,0l.228-.128c.018-.011.016-.028,0-.041l-.228-.121A.084.084,0,0,0,454.895,223.65Z" transform="translate(-448.914 -219.335)" fill="#3a2c6d"/>
                            <path id="路径_282" data-name="路径 282" d="M456.339,222.808l-.228.128c-.021,0-.018.028,0,.041l.228.121a.086.086,0,0,0,.073,0l.228-.128a.023.023,0,0,0,0-.041l-.228-.124a.091.091,0,0,0-.073,0Z" transform="translate(-450.028 -218.675)" fill="#3a2c6d"/>
                            <path id="路径_283" data-name="路径 283" d="M457.789,221.977l-.228.128c-.021,0-.018.03,0,.041l.228.124a.086.086,0,0,0,.073,0l.228-.128c.021-.011.018-.028,0-.041l-.228-.121A.093.093,0,0,0,457.789,221.977Z" transform="translate(-451.147 -218.026)" fill="#3a2c6d"/>
                            <path id="路径_284" data-name="路径 284" d="M459.245,221.139l-.228.128c-.018.011-.016.028,0,.041l.228.121a.084.084,0,0,0,.075,0l.228-.128c.021-.011.018-.028,0-.041l-.228-.121A.086.086,0,0,0,459.245,221.139Z" transform="translate(-452.272 -217.368)" fill="#3a2c6d"/>
                            <path id="路径_285" data-name="路径 285" d="M460.829,219.9l-.392.217c-.018.011-.016.028,0,.041l.228.121a.083.083,0,0,0,.075,0l.392-.217c.018,0,.016-.028,0-.039l-.228-.124A.091.091,0,0,0,460.829,219.9Z" transform="translate(-453.369 -216.398)" fill="#3a2c6d"/>
                            <path id="路径_286" data-name="路径 286" d="M442.6,229.121l-.228.128c-.021,0-.018.03,0,.041l.228.124a.086.086,0,0,0,.073,0l.228-.128c.021,0,.018-.028,0-.041l-.228-.121A.079.079,0,0,0,442.6,229.121Z" transform="translate(-439.422 -223.621)" fill="#3a2c6d"/>
                            <path id="路径_287" data-name="路径 287" d="M444.049,228.287l-.228.13c-.021,0-.018.028,0,.039l.228.124a.086.086,0,0,0,.073,0l.228-.128c.018-.011.016-.028,0-.041l-.228-.121a.093.093,0,0,0-.073,0Z" transform="translate(-440.541 -222.969)" fill="#3a2c6d"/>
                            <path id="路径_288" data-name="路径 288" d="M445.5,227.45l-.228.128c-.021.011-.018.028,0,.041l.228.121a.079.079,0,0,0,.073,0l.228-.128c.018-.011.016-.028,0-.041l-.228-.121A.084.084,0,0,0,445.5,227.45Z" transform="translate(-441.66 -222.311)" fill="#3a2c6d"/>
                            <path id="路径_289" data-name="路径 289" d="M446.955,226.608l-.228.128c-.018.011-.016.028,0,.041l.228.121a.086.086,0,0,0,.073,0l.228-.13c.018,0,.016-.028,0-.039l-.228-.124A.091.091,0,0,0,446.955,226.608Z" transform="translate(-442.785 -221.652)" fill="#3a2c6d"/>
                            <path id="路径_290" data-name="路径 290" d="M448.392,225.782l-.228.128c-.021,0-.016.028,0,.041l.228.121a.079.079,0,0,0,.073,0l.228-.128c.018,0,.016-.028,0-.039l-.228-.124A.091.091,0,0,0,448.392,225.782Z" transform="translate(-443.894 -221.006)" fill="#3a2c6d"/>
                            <path id="路径_291" data-name="路径 291" d="M449.845,224.966l-.228.128c-.018.011-.016.028,0,.041l.228.121a.093.093,0,0,0,.075,0l.228-.128a.023.023,0,0,0,0-.041l-.228-.124a.091.091,0,0,0-.075,0Z" transform="translate(-445.016 -220.365)" fill="#3a2c6d"/>
                            <path id="路径_292" data-name="路径 292" d="M451.295,224.1l-.228.128a.023.023,0,0,0,0,.041l.228.124a.091.091,0,0,0,.075,0l.228-.128c.018-.011.016-.028,0-.041l-.228-.121A.084.084,0,0,0,451.295,224.1Z" transform="translate(-446.136 -219.689)" fill="#3a2c6d"/>
                            <path id="路径_293" data-name="路径 293" d="M452.755,223.262l-.228.13c-.018,0-.016.028,0,.039l.228.124a.091.091,0,0,0,.075,0l.228-.128c.018-.011.016-.028,0-.041l-.228-.121A.086.086,0,0,0,452.755,223.262Z" transform="translate(-447.263 -219.032)" fill="#3a2c6d"/>
                            <path id="路径_294" data-name="路径 294" d="M454.185,222.425l-.228.128c-.018,0-.016.028,0,.041l.228.121a.084.084,0,0,0,.075,0l.228-.128c.021-.011.018-.028,0-.041l-.228-.121A.079.079,0,0,0,454.185,222.425Z" transform="translate(-448.366 -218.375)" fill="#3a2c6d"/>
                            <path id="路径_295" data-name="路径 295" d="M455.655,221.585l-.228.128c-.018,0-.016.028,0,.041l.228.121a.093.093,0,0,0,.075,0l.228-.13c.021,0,.018-.028,0-.039l-.228-.124A.086.086,0,0,0,455.655,221.585Z" transform="translate(-449.501 -217.716)" fill="#3a2c6d"/>
                            <path id="路径_296" data-name="路径 296" d="M457.1,220.747l-.228.128c-.021,0-.018.028,0,.041l.228.121a.079.079,0,0,0,.073,0l.228-.128c.021-.011.018-.03,0-.041l-.228-.124A.086.086,0,0,0,457.1,220.747Z" transform="translate(-450.615 -217.06)" fill="#3a2c6d"/>
                            <path id="路径_297" data-name="路径 297" d="M458.549,219.913l-.228.128c-.021.011-.018.03,0,.041l.228.124a.086.086,0,0,0,.073,0l.228-.128c.018-.011.016-.028,0-.041l-.228-.121A.084.084,0,0,0,458.549,219.913Z" transform="translate(-451.734 -216.409)" fill="#3a2c6d"/>
                            <path id="路径_298" data-name="路径 298" d="M440.623,229.971l-.392.217c-.021.011-.018.03,0,.041l.228.124a.086.086,0,0,0,.073,0l.392-.217c.021,0,.018-.03,0-.041l-.228-.124A.086.086,0,0,0,440.623,229.971Z" transform="translate(-437.77 -224.286)" fill="#3a2c6d"/>
                            <path id="路径_299" data-name="路径 299" d="M459.536,218.656l-.228.13a.084.084,0,0,1-.068,0l-.228-.128c-.021-.011-.021-.028,0-.039h.021a.02.02,0,0,0,0-.037l-.249-.137c-.018,0-.018-.026,0-.037l.148-.082a.1.1,0,0,1,.071,0l.228.128.048.028.034.017.034.02.2.111C459.557,218.63,459.557,218.648,459.536,218.656Z" transform="translate(-452.092 -215.167)" fill="#3a2c6d"/>
                            <path id="路径_300" data-name="路径 300" d="M436.245,227.97l-.228.128c-.018,0-.016.028,0,.041l.228.121a.084.084,0,0,0,.075,0l.228-.128c.018,0,.016-.028,0-.039l-.228-.124a.091.091,0,0,0-.075,0Z" transform="translate(-434.518 -222.719)" fill="#3a2c6d"/>
                            <path id="路径_301" data-name="路径 301" d="M437.695,227.092l-.228.128c-.018,0-.016.03,0,.041l.228.124a.091.091,0,0,0,.075,0l.228-.128c.021,0,.018-.028,0-.041l-.228-.121A.086.086,0,0,0,437.695,227.092Z" transform="translate(-435.637 -222.032)" fill="#3a2c6d"/>
                            <path id="路径_302" data-name="路径 302" d="M439.185,226.258l-.228.128c-.018.011-.016.028,0,.041l.228.121a.086.086,0,0,0,.073,0l.228-.128a.023.023,0,0,0,0-.041l-.228-.124A.091.091,0,0,0,439.185,226.258Z" transform="translate(-436.788 -221.378)" fill="#3a2c6d"/>
                            <path id="路径_303" data-name="路径 303" d="M451.435,219.16l-.228.128c-.018.011-.016.028,0,.041l.228.121a.083.083,0,0,0,.075,0l.228-.128c.018,0,.016-.028,0-.041l-.228-.121A.091.091,0,0,0,451.435,219.16Z" transform="translate(-446.244 -215.819)" fill="#3a2c6d"/>
                            <path id="路径_304" data-name="路径 304" d="M452.879,218.324l-.228.128c-.021.011-.018.03,0,.041l.228.124a.086.086,0,0,0,.073,0l.228-.128c.021-.011.018-.028,0-.041l-.228-.121A.086.086,0,0,0,452.879,218.324Z" transform="translate(-447.357 -215.165)" fill="#3a2c6d"/>
                            <path id="路径_305" data-name="路径 305" d="M454.325,217.486l-.228.128c-.018,0-.016.028,0,.041l.228.121a.093.093,0,0,0,.075,0l.228-.13c.018,0,.016-.028,0-.039l-.228-.124a.091.091,0,0,0-.075,0Z" transform="translate(-448.475 -214.507)" fill="#3a2c6d"/>
                            <path id="路径_306" data-name="路径 306" d="M455.775,216.655l-.228.128c-.018,0-.016.028,0,.039l.228.124a.091.091,0,0,0,.075,0l.228-.128c.021,0,.018-.028,0-.041l-.228-.121A.079.079,0,0,0,455.775,216.655Z" transform="translate(-449.594 -213.855)" fill="#3a2c6d"/>
                            <path id="路径_307" data-name="路径 307" d="M440.646,225.211l-.319.176c-.018,0-.016.028,0,.039l.228.124a.091.091,0,0,0,.075,0l.317-.173c.021,0,.018-.03,0-.041l-.228-.124A.086.086,0,0,0,440.646,225.211Z" transform="translate(-437.845 -220.558)" fill="#3a2c6d"/>
                            <path id="路径_308" data-name="路径 308" d="M449.686,219.971l-.319.176c-.018,0-.016.028,0,.041l.228.121a.091.091,0,0,0,.075,0l.319-.173c.018,0,.016-.03,0-.041l-.228-.124A.091.091,0,0,0,449.686,219.971Z" transform="translate(-444.823 -216.453)" fill="#3a2c6d"/>
                            <path id="路径_309" data-name="路径 309" d="M443.707,221.04l-1.551.852c-.018.011-.016.028,0,.041l.228.121a.084.084,0,0,0,.075,0l1.551-.85a.023.023,0,0,0,0-.041l-.228-.124a.091.091,0,0,0-.075,0Z" transform="translate(-439.258 -217.291)" fill="#3a2c6d"/>
                            <path id="路径_310" data-name="路径 310" d="M441.589,228.084l-.228.13c-.021,0-.018.028,0,.039l.228.124a.086.086,0,0,0,.073,0l.228-.128c.021,0,.018-.028,0-.041l-.228-.121A.086.086,0,0,0,441.589,228.084Z" transform="translate(-438.642 -222.809)" fill="#3a2c6d"/>
                            <path id="路径_311" data-name="路径 311" d="M443.045,227.245l-.228.128c-.018,0-.016.028,0,.041l.228.121a.093.093,0,0,0,.075,0l.228-.13c.018,0,.016-.028,0-.039l-.228-.124a.086.086,0,0,0-.075,0Z" transform="translate(-439.767 -222.149)" fill="#3a2c6d"/>
                            <path id="路径_312" data-name="路径 312" d="M444.485,226.417l-.228.128a.023.023,0,0,0,0,.041l.228.124a.086.086,0,0,0,.073,0l.228-.128c.018-.011.016-.028,0-.041l-.228-.121A.093.093,0,0,0,444.485,226.417Z" transform="translate(-440.879 -221.504)" fill="#3a2c6d"/>
                            <path id="路径_313" data-name="路径 313" d="M445.929,225.582l-.228.128c-.021.011-.018.028,0,.041l.228.121a.079.079,0,0,0,.073,0l.228-.128c.018,0,.016-.028,0-.039l-.228-.124a.091.091,0,0,0-.073,0Z" transform="translate(-441.992 -220.849)" fill="#3a2c6d"/>
                            <path id="路径_314" data-name="路径 314" d="M447.385,224.739l-.228.128c-.018,0-.016.03,0,.041l.228.124a.091.091,0,0,0,.075,0l.228-.128c.021,0,.018-.028,0-.041l-.228-.121a.079.079,0,0,0-.075,0Z" transform="translate(-443.117 -220.188)" fill="#3a2c6d"/>
                            <path id="路径_315" data-name="路径 315" d="M448.825,223.908l-.228.128c-.018.011-.016.028,0,.041l.228.121a.084.084,0,0,0,.075,0l.228-.128c.018,0,.016-.028,0-.041l-.228-.121A.084.084,0,0,0,448.825,223.908Z" transform="translate(-444.229 -219.536)" fill="#3a2c6d"/>
                            <path id="路径_316" data-name="路径 316" d="M450.269,223.07l-.228.128c-.021.011-.018.028,0,.041l.228.121a.079.079,0,0,0,.073,0l.228-.128a.023.023,0,0,0,0-.041l-.228-.121A.084.084,0,0,0,450.269,223.07Z" transform="translate(-445.342 -218.88)" fill="#3a2c6d"/>
                            <path id="路径_317" data-name="路径 317" d="M451.725,222.235l-.228.128c-.018,0-.016.028,0,.041l.228.121a.091.091,0,0,0,.075,0l.228-.128c.021-.011.018-.028,0-.041l-.228-.121A.079.079,0,0,0,451.725,222.235Z" transform="translate(-446.467 -218.226)" fill="#3a2c6d"/>
                            <path id="路径_318" data-name="路径 318" d="M453.185,221.395l-.228.128c-.018,0-.016.028,0,.041l.228.121a.083.083,0,0,0,.075,0l.228-.128c.018,0,.016-.03,0-.041l-.228-.124A.086.086,0,0,0,453.185,221.395Z" transform="translate(-447.595 -217.567)" fill="#3a2c6d"/>
                            <path id="路径_319" data-name="路径 319" d="M454.615,220.57l-.228.128c-.018,0-.016.028,0,.039l.228.124a.086.086,0,0,0,.073,0l.228-.128c.018-.011.016-.028,0-.041l-.228-.121A.083.083,0,0,0,454.615,220.57Z" transform="translate(-448.698 -216.922)" fill="#3a2c6d"/>
                            <path id="路径_320" data-name="路径 320" d="M456.059,219.727l-.228.128c-.021.011-.018.028,0,.041l.228.121a.086.086,0,0,0,.073,0l.228-.128c.021-.011.018-.03,0-.041l-.228-.124A.086.086,0,0,0,456.059,219.727Z" transform="translate(-449.812 -216.261)" fill="#3a2c6d"/>
                            <path id="路径_321" data-name="路径 321" d="M457.515,218.892l-.228.13c-.018,0-.016.028,0,.039l.228.124a.091.091,0,0,0,.075,0l.228-.128c.021-.011.016-.028,0-.041l-.228-.121A.086.086,0,0,0,457.515,218.892Z" transform="translate(-450.937 -215.609)" fill="#3a2c6d"/>
                            <path id="路径_322" data-name="路径 322" d="M439.322,228.964l-.481.264c-.021.011-.018.028,0,.041l.228.121a.084.084,0,0,0,.075,0l.483-.264a.023.023,0,0,0,0-.041l-.228-.124a.091.091,0,0,0-.078,0Z" transform="translate(-436.697 -223.497)" fill="#3a2c6d"/>
                            <path id="路径_323" data-name="路径 323" d="M439.475,227.689l-.228.128c-.018.011-.016.028,0,.041l.228.121a.083.083,0,0,0,.075,0l.228-.128c.021,0,.016-.028,0-.039l-.228-.124A.086.086,0,0,0,439.475,227.689Z" transform="translate(-437.011 -222.498)" fill="#3a2c6d"/>
                            <path id="路径_324" data-name="路径 324" d="M440.915,226.851l-.228.128a.023.023,0,0,0,0,.041l.228.124a.091.091,0,0,0,.075,0l.228-.128c.018-.011.016-.028,0-.041l-.228-.121A.083.083,0,0,0,440.915,226.851Z" transform="translate(-438.123 -221.843)" fill="#3a2c6d"/>
                            <path id="路径_325" data-name="路径 325" d="M442.359,226.022l-.228.128c-.021.011-.018.028,0,.041l.228.121a.079.079,0,0,0,.073,0l.228-.128c.018-.011.016-.028,0-.039l-.228-.124A.091.091,0,0,0,442.359,226.022Z" transform="translate(-439.236 -221.194)" fill="#3a2c6d"/>
                            <path id="路径_326" data-name="路径 326" d="M443.815,225.179l-.228.128c-.018,0-.016.03,0,.041l.228.124a.091.091,0,0,0,.075,0l.228-.128c.021,0,.018-.028,0-.041l-.228-.121A.079.079,0,0,0,443.815,225.179Z" transform="translate(-440.362 -220.533)" fill="#3a2c6d"/>
                            <path id="路径_327" data-name="路径 327" d="M445.255,224.35l-.228.128c-.018.011-.016.028,0,.041l.228.121a.083.083,0,0,0,.075,0l.228-.128c.018,0,.016-.028,0-.041l-.228-.121a.091.091,0,0,0-.075,0Z" transform="translate(-441.473 -219.884)" fill="#3a2c6d"/>
                            <path id="路径_328" data-name="路径 328" d="M446.7,223.51l-.228.128c-.021.011-.018.03,0,.041l.228.121a.079.079,0,0,0,.073,0l.228-.128a.023.023,0,0,0,0-.041l-.228-.121A.084.084,0,0,0,446.7,223.51Z" transform="translate(-442.587 -219.225)" fill="#3a2c6d"/>
                            <path id="路径_329" data-name="路径 329" d="M448.185,222.675l-.228.128c-.018,0-.016.028,0,.041l.228.121a.091.091,0,0,0,.075,0l.228-.128c.021-.011.018-.028,0-.041l-.228-.121A.079.079,0,0,0,448.185,222.675Z" transform="translate(-443.735 -218.571)" fill="#3a2c6d"/>
                            <path id="路径_330" data-name="路径 330" d="M449.595,221.836l-.228.128c-.018,0-.016.028,0,.041l.228.121a.083.083,0,0,0,.075,0L449.9,222c.018,0,.016-.03,0-.041l-.228-.124a.091.091,0,0,0-.075,0Z" transform="translate(-444.823 -217.914)" fill="#3a2c6d"/>
                            <path id="路径_331" data-name="路径 331" d="M451.039,220.97l-.228.128c-.021,0-.018.028,0,.039l.228.124a.086.086,0,0,0,.073,0l.228-.128c.018-.011.016-.028,0-.041l-.228-.121A.084.084,0,0,0,451.039,220.97Z" transform="translate(-445.937 -217.236)" fill="#3a2c6d"/>
                            <path id="路径_332" data-name="路径 332" d="M452.495,220.165l-.228.128c-.018.011-.016.028,0,.041l.228.121a.093.093,0,0,0,.075,0l.228-.128c.021-.011.018-.03,0-.041l-.228-.124A.086.086,0,0,0,452.495,220.165Z" transform="translate(-447.062 -216.604)" fill="#3a2c6d"/>
                            <path id="路径_333" data-name="路径 333" d="M453.935,219.338l-.228.128c-.018,0-.016.028,0,.039l.228.124a.091.091,0,0,0,.075,0l.228-.128c.018,0,.016-.028,0-.041l-.228-.121A.083.083,0,0,0,453.935,219.338Z" transform="translate(-448.173 -215.957)" fill="#3a2c6d"/>
                            <path id="路径_334" data-name="路径 334" d="M455.782,217.464l-.641.351c-.021,0-.018.028,0,.041l.228.121a.086.086,0,0,0,.073,0l.643-.353c.018,0,.016-.028,0-.041l-.228-.121a.084.084,0,0,0-.075,0Z" transform="translate(-449.279 -214.488)" fill="#3a2c6d"/>
                            <path id="路径_335" data-name="路径 335" d="M437.716,228.527l-.319.176c-.018,0-.016.028,0,.041l.228.121a.084.084,0,0,0,.075,0l.317-.173c.021,0,.018-.028,0-.041l-.228-.121A.093.093,0,0,0,437.716,228.527Z" transform="translate(-435.583 -223.156)" fill="#3a2c6d"/>
                            <path id="路径_336" data-name="路径 336" d="M447.753,220.739l-4.687,2.57c-.018.011-.016.028,0,.041l.112.061a.083.083,0,0,0,.075,0l4.687-2.57c.018-.011.016-.028,0-.041l-.112-.061a.086.086,0,0,0-.075,0Z" transform="translate(-439.96 -217.054)" fill="#3a2c6d"/>
                            <path id="_Контур_18" data-name="&lt;Контур&gt;" d="M439.62,218.386l.03.015.81.444,1.439-.789.03-.017-.839-.459Z" transform="translate(-437.31 -214.587)" fill="#bfbfbf"/>
                            <path id="_Контур_19" data-name="&lt;Контур&gt;" d="M439.75,218.519l.81.444,1.439-.789-.81-.444Z" transform="translate(-437.41 -214.705)" fill="#e5e5e5"/>
                            <path id="_Контур_20" data-name="&lt;Контур&gt;" d="M429.49,221.5v.069a.281.281,0,0,0,.146.243l2.855,1.565a.3.3,0,0,0,.294,0l5.166-2.833a.28.28,0,0,0,.148-.243v-.069l-5.46,3Z" transform="translate(-429.49 -216.663)" fill="#e5e5e5"/>
                            <path id="_Контур_21" data-name="&lt;Контур&gt;" d="M443.66,210.556a.365.365,0,0,0,.3-.024l5.143-2.817a.335.335,0,0,0,.171-.232l.561-3.19a.224.224,0,0,0,0-.054.33.33,0,0,0-.1-.238l-5.344,2.932a.25.25,0,0,0-.125.173Z" transform="translate(-440.428 -203.95)" fill="#f4f4f4"/>
                            <path id="_Контур_22" data-name="&lt;Контур&gt;" d="M443.3,210.334l.034.017.048.024.609-3.452a.25.25,0,0,1,.125-.173l5.344-2.93a.405.405,0,0,0-.071-.05l-5.355,2.937a.25.25,0,0,0-.125.171Z" transform="translate(-440.15 -203.77)" fill="#e5e5e5"/>
                        </g>
                    </g>
                    <path id="_Контур_23" data-name="&lt;Контур&gt;" d="M423.814,171.07s.066,1.214.036,1.32a4.634,4.634,0,0,1-.748.592c-.162.128.876,1.107,1.391,1.324s2.119-.362,2.148-1.114-.276-1.383-.522-1.417S423.814,171.07,423.814,171.07Z" transform="translate(-420.956 -167.265)" fill="#ffcea9"/>
                    <path id="_Контур_24" data-name="&lt;Контур&gt;" d="M420.42,174.287a3.62,3.62,0,0,0,2.221,1.435,1.8,1.8,0,0,0-.121-2.167s.52-.4.874-.321a1.751,1.751,0,0,1,.8.969,7.617,7.617,0,0,1,.456,2.817c-.023,1.287,0,4.551,0,4.551a2.776,2.776,0,0,1-1.368,1.864,4.4,4.4,0,0,1-3.07.4,1.5,1.5,0,0,1-1.124-.945,21.673,21.673,0,0,0,.276-3.9c-.16-1.14-.411-1.981-.477-2.9s.128-.9.614-1.227A7.926,7.926,0,0,1,420.42,174.287Z" transform="translate(-417.706 -168.952)" fill="#f4f4f4"/>
                    <path id="_Контур_25" data-name="&lt;Контур&gt;" d="M418.521,191.17a6.59,6.59,0,0,0-.725-.4,1.54,1.54,0,0,1-.623-.358,6.086,6.086,0,0,1-.864-1.792,7.623,7.623,0,0,1-.312-2.709c.112-1.094.527-2.624.632-3.251a.979.979,0,0,0-.415-1.112c-.363-.273-.862-.152-1.129.73a16.191,16.191,0,0,0-.6,3.736,8.186,8.186,0,0,0,.456,2.763,9.83,9.83,0,0,0,1.108,2.167c.128.2.169.384.363.8a2.851,2.851,0,0,0,.848,1.073c.326.217.479.251.554.217s.078-.154-.059-.271a2.341,2.341,0,0,1-.579-.615s.285.271.47.418a2.339,2.339,0,0,0,.543.327c.189.08.456-.072.319-.193s-.274-.182-.543-.405a2.213,2.213,0,0,1-.385-.4,4.541,4.541,0,0,0,.6.371,1.046,1.046,0,0,0,.547.141c.1,0,.228-.137.036-.267a3.631,3.631,0,0,1-.721-.466c-.208-.2-.324-.362-.267-.366s.173.119.415.193.5,0,.536-.119S418.749,191.277,418.521,191.17Z" transform="translate(-414.32 -175.374)" fill="#ffcea9"/>
                    <path id="_Контур_26" data-name="&lt;Контур&gt;" d="M426.3,156.914h0a1.8,1.8,0,0,0-1.891-1.6,1.912,1.912,0,0,0-1.859,1.976,1.833,1.833,0,0,0,.858,1.435,1.91,1.91,0,0,0,.155.42,2.948,2.948,0,0,0,1.77.607.928.928,0,0,0,.814-.635A4.231,4.231,0,0,0,426.3,156.914Z" transform="translate(-420.54 -154.919)" fill="#ffcea9"/>
                    <path id="路径_337" data-name="路径 337" d="M422.156,157.316h0l.094-.821s-.707-1.734.962-1.4c1.1.217,1.368.316,1.715-.388s-.846-1.335-2.251-1.159a1.878,1.878,0,0,0-1.738,1.872A1.957,1.957,0,0,0,422.156,157.316Z" transform="translate(-419.299 -153.513)" fill="#3a2c6d"/>
                    <path id="路径_338" data-name="路径 338" d="M413.75,183.5a2.407,2.407,0,0,0,1.989.613,12.488,12.488,0,0,0,.525-2.113s0-1.116-.9-1.084S413.75,183.5,413.75,183.5Z" transform="translate(-413.75 -174.978)" fill="#ededed"/>
                    <path id="路径_339" data-name="路径 339" d="M439.883,175.817a1.028,1.028,0,0,0,.673-.286c-.036-.451-.643-2.167-1.866-2.291a2.179,2.179,0,0,1,.764.867,10.7,10.7,0,0,1,.429,1.71Z" transform="translate(-433.002 -168.965)" fill="#ededed"/>
                </g>
                <g id="Men_1" transform="translate(17.368 69.284)">
                    <path id="_Контур_27" data-name="&lt;Контур&gt;" d="M131.264,354.34a18.394,18.394,0,0,1,.591,3.632c-.144.789-2.438,2.113-2.438,2.113l-.317-1.352,1.27-1.183-.344-2.241Z" transform="translate(-117.023 -346.831)" fill="#ffcea9"/>
                    <path id="_Контур_28" data-name="&lt;Контур&gt;" d="M130.8,343.526a1.028,1.028,0,0,1,1.277.366,10.773,10.773,0,0,1,.721,2.664,1.373,1.373,0,0,1-1.184.518Z" transform="translate(-118.335 -338.29)" fill="#ededed"/>
                    <path id="路径_340" data-name="路径 340" d="M105.485,460.57A2.064,2.064,0,0,1,104,460.4c-.358,0-2.3-.78-2.561-.117-.228.581.609,1.118,1.058,1.222a21.825,21.825,0,0,1,2.1.769,1.043,1.043,0,0,0,.912-.124A1.622,1.622,0,0,0,105.485,460.57Z" transform="translate(-95.641 -429.606)" fill="#38226d"/>
                    <path id="路径_341" data-name="路径 341" d="M104.6,463.5c-.395-.078-1.12-.542-2.1-.769-.376-.087-1.026-.477-1.09-.943-.089.533.671,1.008,1.09,1.105a21.837,21.837,0,0,1,2.1.769,1.042,1.042,0,0,0,.912-.124.531.531,0,0,0,.13-.217,1.227,1.227,0,0,1-1.042.178Z" transform="translate(-95.64 -430.994)" fill="#9c73ff"/>
                    <path id="路径_342" data-name="路径 342" d="M119.288,454.37a2.062,2.062,0,0,1-1.485-.169c-.358,0-2.3-.78-2.564-.117-.228.581.609,1.118,1.058,1.222a21.6,21.6,0,0,1,2.1.769,1.041,1.041,0,0,0,.912-.124A1.622,1.622,0,0,0,119.288,454.37Z" transform="translate(-106.294 -424.749)" fill="#38226d"/>
                    <path id="路径_343" data-name="路径 343" d="M118.4,457.3c-.392-.078-1.12-.542-2.1-.769-.376-.087-1.024-.477-1.09-.943-.087.533.684,1.008,1.09,1.105a21.608,21.608,0,0,1,2.1.769,1.041,1.041,0,0,0,.912-.124.505.505,0,0,0,.128-.217,1.225,1.225,0,0,1-1.04.178Z" transform="translate(-106.294 -426.138)" fill="#9c73ff"/>
                    <path id="_Контур_29" data-name="&lt;Контур&gt;" d="M112.579,395.5a10.731,10.731,0,0,0-.456-2.02s.132-1.745.2-3.4c.078-1.875.762-3.526.228-5.024l-6.09,1.287s.369,7.479.456,8.385a16.423,16.423,0,0,0,.274,2.1c.278,1.452.73,4.907.73,4.907a2.385,2.385,0,0,0,1.489.158s-.046-4.367-.087-5.418c-.05-1.279-.091-1.181-.091-1.181l.2-3.181.132-1.582s.169,1.162.278,2.2c.1.9.326,1.723.582,3.407.228,1.461.584,4.4.584,4.4a2.167,2.167,0,0,0,1.519.061A44.9,44.9,0,0,0,112.579,395.5Z" transform="translate(-99.547 -370.893)" fill="#8c50ff"/>
                    <path id="_Контур_30" data-name="&lt;Контур&gt;" d="M114.779,326.076c-.456.022-.81.134-.867,0a5.374,5.374,0,0,1-.107-.687c.055-.128.1-.267.1-.267a1.959,1.959,0,0,0,.844-1.636,2.009,2.009,0,0,0-1.8-2.358,2.09,2.09,0,0,0-2.281,1.751,4.25,4.25,0,0,0-.036,2.419c.187.49.429.88.671.956a5.817,5.817,0,0,0,.7-.059h0s.064.329.107.542.025.325-.42.585.684.8,1.4.743a2.4,2.4,0,0,0,1.777-.921C115.119,326.648,115.1,326.059,114.779,326.076Z" transform="translate(-102.636 -320.808)" fill="#ffcea9"/>
                    <path id="_Контур_31" data-name="&lt;Контур&gt;" d="M110.861,343.92c.128.306-.2.678-1.07.938s-.951-.076-.951-.076a17.7,17.7,0,0,0-1.692.83c-.525.347-.755,1.352-.826,3.049-.082,1.963-.089,4.878-.021,5.381a3.242,3.242,0,0,0,2.228.828,6.673,6.673,0,0,0,3.877-1.961c-.014-1.723-.228-2,.068-3,.671-2.271,1.024-3.2.7-4.709-.269-1.244-.645-1.4-1.163-1.387q-.577.022-1.149.1Z" transform="translate(-99.389 -338.589)" fill="#f4f4f4"/>
                    <path id="_Контур_32" data-name="&lt;Контур&gt;" d="M81.116,355.281c1.026.245,1.266-.371,1.4-.88.326-1.233.5-2.347.746-3.045.285-.826.586-.958,1.008-1.118.495-.189.912.217.757,1.259a20.41,20.41,0,0,1-.933,3.587,3.15,3.15,0,0,1-.844,1.4c-.529.405-1.327.388-2.534.1a14.449,14.449,0,0,1-2.053-.845c-.262-.117-.456-.193-.967-.416a3.4,3.4,0,0,1-1.286-.954c-.262-.362-.3-.531-.244-.616s.187-.08.326.072a2.779,2.779,0,0,0,.739.65s-.324-.319-.5-.524a2.649,2.649,0,0,1-.388-.6c-.094-.217.1-.5.244-.347s.214.3.479.6a2.7,2.7,0,0,0,.477.433,4.733,4.733,0,0,1-.438-.67,1.071,1.071,0,0,1-.162-.6c0-.111.171-.243.326-.033a4,4,0,0,0,.552.8c.228.232.433.364.438.3s-.141-.191-.228-.459,0-.553.157-.585.128-.022.253.23a7.04,7.04,0,0,1,.456.806,1.65,1.65,0,0,0,.422.689A4.009,4.009,0,0,0,81.116,355.281Z" transform="translate(-76.148 -343.583)" fill="#ffcea9"/>
                    <path id="_Контур_33" data-name="&lt;Контур&gt;" d="M106.717,349.558c-.684-.1-1.17.2-1.473,1.183s-.513,1.8-.513,1.8a1.861,1.861,0,0,0,1.14.726c.821.189,1.115-.184,1.115-.184s.228-1.034.369-1.734S107.565,349.678,106.717,349.558Z" transform="translate(-98.211 -343.072)" fill="#ededed"/>
                    <path id="路径_344" data-name="路径 344" d="M110.715,321.607s-1.083-1.565,1.264-1.883a2.387,2.387,0,0,1,2.906,1.924,3.43,3.43,0,0,1-1.077,2.627,2.137,2.137,0,0,1-1.462-.169,7.768,7.768,0,0,1-.032-.878S113.137,321.578,110.715,321.607Z" transform="translate(-102.639 -319.691)" fill="#3a2c6d"/>
                </g>
            </g>
        </g>
    </g>
</svg>
