<svg xmlns="http://www.w3.org/2000/svg" width="438" height="432" viewBox="0 0 438 432">
    <g id="_4" data-name="4" transform="translate(-48 -600)">
        <g id="框" transform="translate(0 456)">
            <g id="底" fill="rgba(139,165,255,0.06)">
                <path d="M96,144H60.971L48,156.971V563.217L60.783,576H248.115l7.45-7.45h28.429l7.45,7.45H472.619L486,562.619V328.959l-12.431-12.431V233.621L486,221.189V156.13l-6.934-6.934H425.2L420,144Z" stroke="none"/>
                <path d="M 61.38571166992188 145 L 49 157.3857421875 L 49 562.802490234375 L 61.197509765625 575 L 247.7010498046875 575 L 255.1514587402344 567.5496215820313 L 284.4086608886719 567.5496215820313 L 291.8590698242188 575 L 472.2047729492188 575 L 485 562.2047729492188 L 485 329.3728942871094 L 472.568603515625 316.9414978027344 L 472.568603515625 233.2066040039063 L 485 220.7752685546875 L 485 156.5442504882813 L 478.6513977050781 150.1956787109375 L 424.781494140625 150.1956787109375 L 419.5857849121094 145 L 61.38571166992188 145 M 60.97149658203125 144 L 420 144 L 425.1957397460938 149.1956787109375 L 479.0656127929688 149.1956787109375 L 486 156.1300659179688 L 486 221.1895141601563 L 473.568603515625 233.6208190917969 L 473.568603515625 316.5272827148438 L 486 328.9586791992188 L 486 562.6190185546875 L 472.6189880371094 576 L 291.44482421875 576 L 283.9944458007813 568.5496215820313 L 255.565673828125 568.5496215820313 L 248.1152648925781 576 L 60.78326416015625 576 L 48 563.2167358398438 L 48 156.9714965820313 L 60.97149658203125 144 Z" stroke="none" fill="rgba(255,255,255,0.16)"/>
            </g>
            <g id="小元素">
                <path id="路径_121" data-name="路径 121" d="M48,432l6.7,6.7v75.5l-6.7,6Z" transform="translate(0 19.797)" fill="#fff"/>
                <path id="路径_122" data-name="路径 122" d="M89.872,144v4.244H63.036L51.4,159.884V180.93l-3.4,3.4V157.481L61.481,144Z" fill="#fff"/>
                <path id="路径_123" data-name="路径 123" d="M455.815,539.679h-3.6v22.028l-11.709,11.957h-9.268L427.815,576h14.64l13.36-13.406Z" transform="translate(30.185)" fill="#fff"/>
                <path id="路径_124" data-name="路径 124" d="M120,576l2.249-2.249h60.806L185.3,576Z" fill="#fff"/>
                <rect id="矩形_72" data-name="矩形 72" width="4" height="4" transform="translate(406 567)" fill="#fff"/>
                <rect id="矩形_73" data-name="矩形 73" width="4" height="4" transform="translate(414 567)" fill="#fff"/>
                <rect id="矩形_74" data-name="矩形 74" width="4" height="4" transform="translate(422 567)" fill="#fff"/>
                <path id="路径_116" data-name="路径 116" d="M-1990.442-680.541l-6.662,6.648v19.765l6.662-6.648Z" transform="translate(2051.104 932.244)" fill="#fff" opacity="0.8"/>
                <path id="路径_117" data-name="路径 117" d="M-1990.442-680.541l-6.662,6.648v19.765l6.662-6.648Z" transform="translate(2051.104 961.186)" fill="#fff" opacity="0.6"/>
                <path id="路径_118" data-name="路径 118" d="M-1990.442-680.541l-6.662,6.648v19.765l6.662-6.648Z" transform="translate(2051.104 990.128)" fill="#fff" opacity="0.4"/>
                <rect id="矩形_61" data-name="矩形 61" width="8.001" height="1.996" rx="0.998" transform="translate(469.147 267.529)" fill="#fff"/>
                <rect id="矩形_62" data-name="矩形 62" width="8.001" height="1.996" rx="0.998" transform="translate(469.147 271.521)" fill="#fff"/>
                <rect id="矩形_63" data-name="矩形 63" width="8.001" height="1.996" rx="0.998" transform="translate(469.147 275.513)" fill="#fff"/>
                <rect id="矩形_64" data-name="矩形 64" width="8.001" height="1.996" rx="0.998" transform="translate(469.147 279.505)" fill="#fff"/>
                <rect id="矩形_65" data-name="矩形 65" width="8.001" height="1.996" rx="0.998" transform="translate(469.147 283.497)" fill="#fff"/>
                <rect id="矩形_97" data-name="矩形 97" width="2" height="4" transform="translate(348 144)" fill="#fff"/>
                <rect id="矩形_98" data-name="矩形 98" width="2" height="4" transform="translate(352 144)" fill="#fff"/>
                <rect id="矩形_99" data-name="矩形 99" width="2" height="4" transform="translate(356 144)" fill="#fff"/>
                <rect id="矩形_100" data-name="矩形 100" width="2" height="4" transform="translate(360 144)" fill="#fff"/>
                <rect id="矩形_101" data-name="矩形 101" width="2" height="4" transform="translate(364 144)" fill="#fff"/>
            </g>
        </g>
        <text id="暑期人员组成占比" transform="translate(72 636)" fill="#fff" font-size="14" font-family="YuGothicUI-Bold, Yu Gothic UI" font-weight="700"><tspan x="0" y="0">暑期人</tspan><tspan y="0" font-family="MicrosoftJhengHeiUIBold, Microsoft JhengHei UI" font-weight="400">员组</tspan><tspan y="0">成占比</tspan></text>
        <g id="组_36" data-name="组 36" transform="translate(15 439)">
            <path id="减去_2" data-name="减去 2" d="M132,264a132.976,132.976,0,0,1-26.6-2.682,131.277,131.277,0,0,1-47.2-19.862A132.386,132.386,0,0,1,10.373,183.38,131.331,131.331,0,0,1,2.682,158.6a133.283,133.283,0,0,1,0-53.205A131.277,131.277,0,0,1,22.544,58.2,132.385,132.385,0,0,1,80.62,10.373,131.332,131.332,0,0,1,105.4,2.682a133.283,133.283,0,0,1,53.205,0,131.275,131.275,0,0,1,47.2,19.862A132.386,132.386,0,0,1,253.627,80.62a131.341,131.341,0,0,1,7.691,24.778,133.285,133.285,0,0,1,0,53.205,131.275,131.275,0,0,1-19.862,47.2,132.386,132.386,0,0,1-58.076,47.824,131.334,131.334,0,0,1-24.778,7.691A132.973,132.973,0,0,1,132,264Zm0-240a108.8,108.8,0,0,0-21.766,2.194A107.41,107.41,0,0,0,71.617,42.445,108.315,108.315,0,0,0,32.488,89.962a107.458,107.458,0,0,0-6.293,20.273,109.053,109.053,0,0,0,0,43.531,107.41,107.41,0,0,0,16.251,38.618,108.315,108.315,0,0,0,47.517,39.129,107.458,107.458,0,0,0,20.273,6.293,109.053,109.053,0,0,0,43.531,0,107.41,107.41,0,0,0,38.618-16.251,108.315,108.315,0,0,0,39.129-47.517,107.457,107.457,0,0,0,6.293-20.273,109.053,109.053,0,0,0,0-43.531,107.41,107.41,0,0,0-16.251-38.618,108.316,108.316,0,0,0-47.517-39.129,107.457,107.457,0,0,0-20.273-6.293A108.8,108.8,0,0,0,132,24Z" transform="translate(120 264)" fill="#76fbe3"/>
            <circle id="椭圆_7" data-name="椭圆 7" cx="84" cy="84" r="84" transform="translate(168 312)" fill="#3890f8"/>
            <path id="交叉_1" data-name="交叉 1" d="M72,114.037a84,84,0,0,1,84-84v84L79.522,148.83A83.687,83.687,0,0,1,72,114.037Z" transform="translate(96 281.962)" fill="#ffa488"/>
            <path id="天脊书院" d="M105.4,296.789a131.275,131.275,0,0,1-47.2-19.862,132.368,132.368,0,0,1-47.824-58.076,131.328,131.328,0,0,1-7.691-24.777A132.891,132.891,0,0,1,.014,169.381l24-.347a108.705,108.705,0,0,0,2.183,20.2,107.407,107.407,0,0,0,16.25,38.618,108.32,108.32,0,0,0,47.517,39.128,107.48,107.48,0,0,0,20.272,6.294,109.049,109.049,0,0,0,43.531,0,107.43,107.43,0,0,0,38.618-16.251,108.308,108.308,0,0,0,39.129-47.516,107.5,107.5,0,0,0,6.293-20.272,109.055,109.055,0,0,0,0-43.532,107.407,107.407,0,0,0-16.25-38.618,108.32,108.32,0,0,0-47.517-39.128,107.414,107.414,0,0,0-20.273-6.293A108.773,108.773,0,0,0,132,59.472h0v-24h0a132.983,132.983,0,0,1,26.6,2.681,131.261,131.261,0,0,1,47.2,19.862,132.381,132.381,0,0,1,47.824,58.076,131.317,131.317,0,0,1,7.691,24.778,133.277,133.277,0,0,1,0,53.205,131.3,131.3,0,0,1-19.861,47.2A132.4,132.4,0,0,1,183.38,289.1a131.312,131.312,0,0,1-24.778,7.691,133.272,133.272,0,0,1-53.2,0Z" transform="translate(120 228.529)" fill="#fae58a"/>
            <path id="红芯书院" d="M105.4,296.789q-.708-.145-1.414-.3l5.094-23.458q.578.125,1.157.244a109.049,109.049,0,0,0,43.531,0,107.43,107.43,0,0,0,38.618-16.251,108.308,108.308,0,0,0,39.129-47.516,107.5,107.5,0,0,0,6.293-20.272,109.055,109.055,0,0,0,0-43.532,107.407,107.407,0,0,0-16.25-38.618,108.32,108.32,0,0,0-47.517-39.128,107.414,107.414,0,0,0-20.273-6.293A108.773,108.773,0,0,0,132,59.472h0v-24h0a132.983,132.983,0,0,1,26.6,2.681,131.261,131.261,0,0,1,47.2,19.862,132.381,132.381,0,0,1,47.824,58.076,131.317,131.317,0,0,1,7.691,24.778,133.277,133.277,0,0,1,0,53.205,131.3,131.3,0,0,1-19.861,47.2A132.4,132.4,0,0,1,183.38,289.1a131.312,131.312,0,0,1-24.778,7.691,133.272,133.272,0,0,1-53.2,0Z" transform="translate(120 228.529)" fill="#ff7875"/>
            <path id="云顶书院" d="M227.157,218.593q2.392-4.443,4.356-9.083a107.5,107.5,0,0,0,6.293-20.272,109.055,109.055,0,0,0,0-43.532,107.407,107.407,0,0,0-16.25-38.618,108.32,108.32,0,0,0-47.517-39.128,107.414,107.414,0,0,0-20.273-6.293A108.773,108.773,0,0,0,132,59.472h0v-24h0a132.983,132.983,0,0,1,26.6,2.681,131.261,131.261,0,0,1,47.2,19.862,132.381,132.381,0,0,1,47.824,58.076,131.317,131.317,0,0,1,7.691,24.778,133.277,133.277,0,0,1,0,53.205,131.329,131.329,0,0,1-7.691,24.777q-2.394,5.66-5.324,11.1Z" transform="translate(120 228.529)" fill="#7ba7f8"/>
            <text id="女" transform="translate(214 375)" font-size="14" font-family="YuGothicUI-Regular, Yu Gothic UI" letter-spacing="0.04em"><tspan x="-7" y="0">女</tspan></text>
            <text id="男" transform="translate(282 419)" fill="#fff" font-size="14" font-family="YuGothicUI-Regular, Yu Gothic UI" letter-spacing="0.04em"><tspan x="-7" y="0">男</tspan></text>
            <text id="云顶书院_41_" data-name="云顶书院：41%" transform="translate(355 275)" fill="#fff" font-size="12" font-family="YuGothicUI-Regular, Yu Gothic UI"><tspan x="0" y="0">云</tspan><tspan y="0" font-family="MicrosoftJhengHeiUIRegular, Microsoft JhengHei UI">顶书</tspan><tspan y="0">院：</tspan><tspan y="0" font-family="SegoeUI, Segoe UI">41%</tspan></text>
            <text id="红芯书院_26_" data-name="红芯书院：26%" transform="translate(355 527)" fill="#fff" font-size="12" font-family="MicrosoftJhengHeiUIRegular, Microsoft JhengHei UI"><tspan x="0" y="0">红</tspan><tspan y="0" font-family="YuGothicUI-Regular, Yu Gothic UI">芯</tspan><tspan y="0">书</tspan><tspan y="0" font-family="YuGothicUI-Regular, Yu Gothic UI">院：</tspan><tspan y="0" font-family="SegoeUI, Segoe UI">26%</tspan></text>
            <text id="天脊书院_19_" data-name="天脊书院：19%" transform="translate(65 527)" fill="#fff" font-size="12" font-family="YuGothicUI-Regular, Yu Gothic UI"><tspan x="0" y="0">天脊</tspan><tspan y="0" font-family="MicrosoftJhengHeiUIRegular, Microsoft JhengHei UI">书</tspan><tspan y="0">院：</tspan><tspan y="0" font-family="SegoeUI, Segoe UI">19%</tspan></text>
            <text id="匠芯书院_14_" data-name="匠芯书院：14%" transform="translate(65 275)" fill="#fff" font-size="12" font-family="YuGothicUI-Regular, Yu Gothic UI"><tspan x="0" y="0">匠芯</tspan><tspan y="0" font-family="MicrosoftJhengHeiUIRegular, Microsoft JhengHei UI">书</tspan><tspan y="0">院：</tspan><tspan y="0" font-family="SegoeUI, Segoe UI">14%</tspan></text>
            <path id="路径_141" data-name="路径 141" d="M348,316.1l18.6-18H430" transform="translate(0 -6.099)" fill="none" stroke="#40a9ff" stroke-linejoin="round" stroke-width="1"/>
            <path id="路径_146" data-name="路径 146" d="M158.5,316.178l-20.5-20H68.5" transform="translate(-0.501 -4.178)" fill="none" stroke="#76fbe3" stroke-linejoin="round" stroke-width="1"/>
            <path id="路径_147" data-name="路径 147" d="M310.763,509.04l13.181,13.181H342.23" fill="none" stroke="#ff7875" stroke-linejoin="round" stroke-width="1"/>
            <path id="路径_148" data-name="路径 148" d="M182.163,499.75l-16.571,16.571H144.105" transform="translate(12 5.9)" fill="none" stroke="#fae58a" stroke-linejoin="round" stroke-width="1"/>
        </g>
    </g>
</svg>
