<svg xmlns="http://www.w3.org/2000/svg" width="438" height="432" viewBox="0 0 438 432">
    <g id="_1" data-name="1" transform="translate(-48 -600)">
        <g id="框" transform="translate(0 456)">
            <g id="底" fill="rgba(139,165,255,0.06)">
                <path d="M96,144H60.971L48,156.971V563.217L60.783,576H248.115l7.45-7.45h28.429l7.45,7.45H472.619L486,562.619V328.959l-12.431-12.431V233.621L486,221.189V156.13l-6.934-6.934H425.2L420,144Z" stroke="none"/>
                <path d="M 61.38571166992188 145 L 49 157.3857421875 L 49 562.802490234375 L 61.197509765625 575 L 247.7010498046875 575 L 255.1514587402344 567.5496215820313 L 284.4086608886719 567.5496215820313 L 291.8590698242188 575 L 472.2047729492188 575 L 485 562.2047729492188 L 485 329.3728942871094 L 472.568603515625 316.9414978027344 L 472.568603515625 233.2066040039063 L 485 220.7752685546875 L 485 156.5442504882813 L 478.6513977050781 150.1956787109375 L 424.781494140625 150.1956787109375 L 419.5857849121094 145 L 61.38571166992188 145 M 60.97149658203125 144 L 420 144 L 425.1957397460938 149.1956787109375 L 479.0656127929688 149.1956787109375 L 486 156.1300659179688 L 486 221.1895141601563 L 473.568603515625 233.6208190917969 L 473.568603515625 316.5272827148438 L 486 328.9586791992188 L 486 562.6190185546875 L 472.6189880371094 576 L 291.44482421875 576 L 283.9944458007813 568.5496215820313 L 255.565673828125 568.5496215820313 L 248.1152648925781 576 L 60.78326416015625 576 L 48 563.2167358398438 L 48 156.9714965820313 L 60.97149658203125 144 Z" stroke="none" fill="rgba(255,255,255,0.16)"/>
            </g>
            <g id="小元素">
                <path id="路径_121" data-name="路径 121" d="M48,432l6.7,6.7v75.5l-6.7,6Z" transform="translate(0 19.797)" fill="#fff"/>
                <path id="路径_122" data-name="路径 122" d="M89.872,144v4.244H63.036L51.4,159.884V180.93l-3.4,3.4V157.481L61.481,144Z" fill="#fff"/>
                <path id="路径_123" data-name="路径 123" d="M455.815,539.679h-3.6v22.028l-11.709,11.957h-9.268L427.815,576h14.64l13.36-13.406Z" transform="translate(30.185)" fill="#fff"/>
                <path id="路径_124" data-name="路径 124" d="M120,576l2.249-2.249h60.806L185.3,576Z" fill="#fff"/>
                <rect id="矩形_72" data-name="矩形 72" width="4" height="4" transform="translate(406 567)" fill="#fff"/>
                <rect id="矩形_73" data-name="矩形 73" width="4" height="4" transform="translate(414 567)" fill="#fff"/>
                <rect id="矩形_74" data-name="矩形 74" width="4" height="4" transform="translate(422 567)" fill="#fff"/>
                <path id="路径_116" data-name="路径 116" d="M-1990.442-680.541l-6.662,6.648v19.765l6.662-6.648Z" transform="translate(2051.104 932.244)" fill="#fff" opacity="0.8"/>
                <path id="路径_117" data-name="路径 117" d="M-1990.442-680.541l-6.662,6.648v19.765l6.662-6.648Z" transform="translate(2051.104 961.186)" fill="#fff" opacity="0.6"/>
                <path id="路径_118" data-name="路径 118" d="M-1990.442-680.541l-6.662,6.648v19.765l6.662-6.648Z" transform="translate(2051.104 990.128)" fill="#fff" opacity="0.4"/>
                <rect id="矩形_61" data-name="矩形 61" width="8.001" height="1.996" rx="0.998" transform="translate(469.147 267.529)" fill="#fff"/>
                <rect id="矩形_62" data-name="矩形 62" width="8.001" height="1.996" rx="0.998" transform="translate(469.147 271.521)" fill="#fff"/>
                <rect id="矩形_63" data-name="矩形 63" width="8.001" height="1.996" rx="0.998" transform="translate(469.147 275.513)" fill="#fff"/>
                <rect id="矩形_64" data-name="矩形 64" width="8.001" height="1.996" rx="0.998" transform="translate(469.147 279.505)" fill="#fff"/>
                <rect id="矩形_65" data-name="矩形 65" width="8.001" height="1.996" rx="0.998" transform="translate(469.147 283.497)" fill="#fff"/>
                <rect id="矩形_97" data-name="矩形 97" width="2" height="4" transform="translate(348 144)" fill="#fff"/>
                <rect id="矩形_98" data-name="矩形 98" width="2" height="4" transform="translate(352 144)" fill="#fff"/>
                <rect id="矩形_99" data-name="矩形 99" width="2" height="4" transform="translate(356 144)" fill="#fff"/>
                <rect id="矩形_100" data-name="矩形 100" width="2" height="4" transform="translate(360 144)" fill="#fff"/>
                <rect id="矩形_101" data-name="矩形 101" width="2" height="4" transform="translate(364 144)" fill="#fff"/>
            </g>
        </g>
        <text id="项目分类" transform="translate(72 636)" fill="#fff" font-size="14" font-family="MicrosoftJhengHeiUIBold, Microsoft JhengHei UI"><tspan x="0" y="0">项</tspan><tspan y="0" font-family="YuGothicUI-Bold, Yu Gothic UI" font-weight="700">目分类</tspan></text>
        <g id="组_45" data-name="组 45" transform="translate(-924 423)">
            <path id="c_" data-name="c++" d="M132,264a132.976,132.976,0,0,1-26.6-2.682,131.277,131.277,0,0,1-47.2-19.862A132.386,132.386,0,0,1,10.373,183.38,131.331,131.331,0,0,1,2.682,158.6a133.283,133.283,0,0,1,0-53.205A131.277,131.277,0,0,1,22.544,58.2,132.385,132.385,0,0,1,80.62,10.373,131.332,131.332,0,0,1,105.4,2.682a133.283,133.283,0,0,1,53.205,0,131.275,131.275,0,0,1,47.2,19.862A132.386,132.386,0,0,1,253.627,80.62a131.341,131.341,0,0,1,7.691,24.778,133.285,133.285,0,0,1,0,53.205,131.275,131.275,0,0,1-19.862,47.2,132.386,132.386,0,0,1-58.076,47.824,131.334,131.334,0,0,1-24.778,7.691A132.973,132.973,0,0,1,132,264Zm0-240a108.8,108.8,0,0,0-21.766,2.194A107.41,107.41,0,0,0,71.617,42.445,108.315,108.315,0,0,0,32.488,89.962a107.458,107.458,0,0,0-6.293,20.273,109.053,109.053,0,0,0,0,43.531,107.41,107.41,0,0,0,16.251,38.618,108.315,108.315,0,0,0,47.517,39.129,107.458,107.458,0,0,0,20.273,6.293,109.053,109.053,0,0,0,43.531,0,107.41,107.41,0,0,0,38.618-16.251,108.315,108.315,0,0,0,39.129-47.517,107.457,107.457,0,0,0,6.293-20.273,109.053,109.053,0,0,0,0-43.531,107.41,107.41,0,0,0-16.251-38.618,108.316,108.316,0,0,0-47.517-39.129,107.457,107.457,0,0,0-20.273-6.293A108.8,108.8,0,0,0,132,24Z" transform="translate(1059 280)" fill="#76fbe3"/>
            <path id="交叉_4" data-name="交叉 4" d="M84,97.744v-84a84.013,84.013,0,0,1,23.521,164.663Z" transform="translate(1107 314.257)" fill="#617dd2"/>
            <path id="交叉_2" data-name="交叉 2" d="M82.606,154.926,156,114.037l23.558,80.652a84.13,84.13,0,0,1-96.952-39.764Z" transform="translate(1035 297.963)" fill="#9ec97e"/>
            <path id="交叉_3" data-name="交叉 3" d="M72,114.037a84,84,0,0,1,84-84v84L82.6,154.918A83.623,83.623,0,0,1,72,114.037Z" transform="translate(1029 291.963)" fill="#fadc74"/>
            <path id="js" d="M105.4,296.789a131.275,131.275,0,0,1-47.2-19.862,132.368,132.368,0,0,1-47.824-58.076,131.328,131.328,0,0,1-7.691-24.777A132.891,132.891,0,0,1,.014,169.381l24-.347a108.705,108.705,0,0,0,2.183,20.2,107.407,107.407,0,0,0,16.25,38.618,108.32,108.32,0,0,0,47.517,39.128,107.48,107.48,0,0,0,20.272,6.294,109.049,109.049,0,0,0,43.531,0,107.43,107.43,0,0,0,38.618-16.251,108.308,108.308,0,0,0,39.129-47.516,107.5,107.5,0,0,0,6.293-20.272,109.055,109.055,0,0,0,0-43.532,107.407,107.407,0,0,0-16.25-38.618,108.32,108.32,0,0,0-47.517-39.128,107.414,107.414,0,0,0-20.273-6.293A108.773,108.773,0,0,0,132,59.472h0v-24h0a132.983,132.983,0,0,1,26.6,2.681,131.261,131.261,0,0,1,47.2,19.862,132.381,132.381,0,0,1,47.824,58.076,131.317,131.317,0,0,1,7.691,24.778,133.277,133.277,0,0,1,0,53.205,131.3,131.3,0,0,1-19.861,47.2A132.4,132.4,0,0,1,183.38,289.1a131.312,131.312,0,0,1-24.778,7.691,133.272,133.272,0,0,1-53.2,0Z" transform="translate(1059 244.529)" fill="#fae58a"/>
            <path id="java" d="M105.4,296.789q-.708-.145-1.414-.3l5.094-23.458q.578.125,1.157.244a109.049,109.049,0,0,0,43.531,0,107.43,107.43,0,0,0,38.618-16.251,108.308,108.308,0,0,0,39.129-47.516,107.5,107.5,0,0,0,6.293-20.272,109.055,109.055,0,0,0,0-43.532,107.407,107.407,0,0,0-16.25-38.618,108.32,108.32,0,0,0-47.517-39.128,107.414,107.414,0,0,0-20.273-6.293A108.773,108.773,0,0,0,132,59.472h0v-24h0a132.983,132.983,0,0,1,26.6,2.681,131.261,131.261,0,0,1,47.2,19.862,132.381,132.381,0,0,1,47.824,58.076,131.317,131.317,0,0,1,7.691,24.778,133.277,133.277,0,0,1,0,53.205,131.3,131.3,0,0,1-19.861,47.2A132.4,132.4,0,0,1,183.38,289.1a131.312,131.312,0,0,1-24.778,7.691,133.272,133.272,0,0,1-53.2,0Z" transform="translate(1059 244.529)" fill="#ff7875"/>
            <path id="Python" d="M219.609,230.641q1-1.378,1.946-2.785a108.064,108.064,0,0,0,10.193-101.861l22.166-9.217a131.34,131.34,0,0,1,7.4,24.091,133.277,133.277,0,0,1,0,53.205,131.3,131.3,0,0,1-19.861,47.2q-1.162,1.719-2.379,3.4Z" transform="translate(1059 244.529)" fill="#7ba7f8"/>
            <text id="桌面端" transform="translate(1235 410)" fill="#fff" font-size="14" font-family="YuGothicUI-Regular, Yu Gothic UI" letter-spacing="0.04em"><tspan x="-21.56" y="0">桌面端</tspan></text>
            <text id="移动端" transform="translate(1174 465)" font-size="14" font-family="YuGothicUI-Regular, Yu Gothic UI" letter-spacing="0.04em"><tspan x="-21.56" y="0">移</tspan><tspan y="0" font-family="MicrosoftJhengHeiUIRegular, Microsoft JhengHei UI">动</tspan><tspan y="0">端</tspan></text>
            <text id="网页端" transform="translate(1150 392)" font-size="14" font-family="YuGothicUI-Regular, Yu Gothic UI" letter-spacing="0.04em"><tspan x="-21.56" y="0">网</tspan><tspan y="0" font-family="MicrosoftJhengHeiUIRegular, Microsoft JhengHei UI">页</tspan><tspan y="0">端</tspan></text>
            <path id="Python-2" data-name="Python" d="M231.513,125.433A107.866,107.866,0,0,0,132,59.472h0v-24h0a132.983,132.983,0,0,1,26.6,2.681,131.261,131.261,0,0,1,47.2,19.862,132.381,132.381,0,0,1,47.824,58.076q1.083,2.56,2.057,5.169l-22.487,8.4Q232.4,127.528,231.513,125.433Z" transform="translate(1059 244.529)" fill="#f8ae63"/>
            <path id="路径_156" data-name="路径 156" d="M1270.779,335.973c3.742-3.458,22.8-21.8,22.8-21.8H1310" transform="translate(-54.192 -49)" fill="none" stroke="#f8ae63" stroke-linejoin="round" stroke-width="1"/>
        </g>
        <g id="矩形_128" data-name="矩形 128" transform="translate(338 658)" fill="rgba(255,255,255,0.08)" stroke="rgba(255,255,255,0.16)" stroke-width="1">
            <rect width="124" height="64" rx="8" stroke="none"/>
            <rect x="0.5" y="0.5" width="123" height="63" rx="7.5" fill="none"/>
        </g>
        <text id="语言" transform="translate(400 679)" fill="#fff" font-size="14" font-family="MicrosoftJhengHeiUIRegular, Microsoft JhengHei UI"><tspan x="-14" y="0">语</tspan><tspan y="0" font-family="YuGothicUI-Regular, Yu Gothic UI">言</tspan></text>
        <text id="前端_7" data-name="前端：7" transform="translate(346 711)" fill="#fff" font-size="14" font-family="YuGothicUI-Regular, Yu Gothic UI"><tspan x="0" y="0">前端：</tspan><tspan y="0" font-family="SegoeUI, Segoe UI">7</tspan></text>
        <text id="_14_" data-name="14%" transform="translate(440 711)" fill="#fff" font-size="14" font-family="SegoeUI, Segoe UI"><tspan x="-13.275" y="0">14%</tspan></text>
        <line id="直线_1" data-name="直线 1" x2="108" transform="translate(346 690)" fill="none" stroke="#fff" stroke-width="1" opacity="0.2"/>
    </g>
</svg>
